<svg width="1920" height="1080" viewBox="0 0 1920 1080" fill="none" xmlns="http://www.w3.org/2000/svg">
<g clip-path="url(#clip0_1161_1372)">
<g filter="url(#filter0_di_1161_1372)">
<rect x="960" y="288" width="864" height="486" fill="#F2F3EE"/>
</g>
<path d="M107.033 113.437H100.327V109.704H106.654V107.325H100.327V103.757H107.033V101.204H97.2305V116H107.033V113.437ZM114.332 116V106.31H114.424L121.346 116H123.909V101.204H120.946V110.842H120.864L113.953 101.204H111.369V116H114.332ZM135.115 116V103.757H139.401V101.204H127.742V103.757H132.018V116H135.115ZM146.31 103.624H148.945C150.483 103.624 151.447 104.546 151.447 105.982C151.447 107.448 150.534 108.34 148.976 108.34H146.31V103.624ZM146.31 110.586H148.791L151.55 116H155.056L151.939 110.125C153.641 109.458 154.626 107.817 154.626 105.92C154.626 102.998 152.677 101.204 149.273 101.204H143.213V116H146.31V110.586ZM168.456 116H171.748L166.6 101.204H162.96L157.823 116H161.002L162.129 112.411H167.328L168.456 116ZM164.693 104.034H164.765L166.662 110.094H162.796L164.693 104.034ZM178.329 116V106.31H178.421L185.342 116H187.906V101.204H184.942V110.842H184.86L177.949 101.204H175.365V116H178.329ZM199.019 116.256C202.649 116.256 205.182 114.165 205.53 110.863H202.516C202.187 112.616 200.865 113.693 199.029 113.693C196.661 113.693 195.174 111.745 195.174 108.586C195.174 105.469 196.681 103.511 199.019 103.511C200.824 103.511 202.218 104.7 202.505 106.515H205.52C205.284 103.203 202.577 100.947 199.019 100.947C194.733 100.947 192.016 103.829 192.016 108.597C192.016 113.375 194.712 116.256 199.019 116.256ZM219.35 113.437H212.644V109.704H218.971V107.325H212.644V103.757H219.35V101.204H209.548V116H219.35V113.437Z" fill="#F2F3EE"/>
<rect width="24" height="24" transform="translate(1800 96)" fill="#F2F3EE"/>
<path d="M110.096 392.436H102.167V433.711C102.167 447.278 111.638 457.057 127.408 457.057C143.177 457.057 152.648 447.278 152.648 433.711V392.436H144.719V433.182C144.719 442.785 138.42 449.745 127.408 449.745C116.395 449.745 110.096 442.785 110.096 433.182V392.436ZM163.793 456H171.457V429.041C171.457 421.289 176.171 416.179 183.395 416.179C190.443 416.179 193.923 420.232 193.923 427.632V456H201.588V426.266C201.588 415.871 195.773 409.395 185.73 409.395C178.638 409.395 173.748 412.567 171.193 417.5H171.017V410.188H163.793V456ZM228.722 456.793C235.33 456.793 240.572 453.533 243.523 448.247H243.655V456H250.967V392.436H243.303V417.633H243.127C240.395 412.611 235.109 409.395 228.546 409.395C217.005 409.395 209.12 418.734 209.12 433.094C209.12 447.454 217.049 456.793 228.722 456.793ZM230.176 416.135C238.061 416.135 243.347 422.875 243.347 433.094C243.347 443.358 238.061 450.053 230.176 450.053C222.071 450.053 216.961 443.49 216.961 433.094C216.961 422.742 222.071 416.135 230.176 416.135ZM279.688 416.047C286.912 416.047 291.714 421.509 291.89 429.174H267.002C267.486 421.553 272.508 416.047 279.688 416.047ZM291.714 442.873C290.436 447.19 286.163 450.141 280.349 450.141C272.111 450.141 266.957 444.371 266.957 435.605V435.164H299.819V432.257C299.819 418.381 292.198 409.395 279.82 409.395C267.178 409.395 259.073 419.042 259.073 433.27C259.073 447.675 267.046 456.793 280.172 456.793C290.172 456.793 297.925 450.89 299.246 442.873H291.714ZM307.571 456H315.236V427.456C315.236 420.98 319.113 416.708 325.059 416.708C326.909 416.708 328.539 416.928 329.156 417.148V409.704C328.539 409.616 327.394 409.395 326.072 409.395C320.698 409.395 316.47 412.611 314.972 417.677H314.796V410.188H307.571V456ZM334.618 422.83C334.618 429.438 338.803 433.446 347.437 435.517L354.705 437.279C359.947 438.556 361.753 440.45 361.753 443.754C361.753 447.895 357.92 450.538 351.709 450.538C345.498 450.538 341.974 448.027 341.049 442.785H333.385C334.266 451.375 340.961 456.793 351.709 456.793C361.929 456.793 369.462 451.155 369.462 443.181C369.462 436.618 366.114 433.006 356.863 430.759L349.595 428.997C344.485 427.764 342.151 425.606 342.151 422.434C342.151 418.425 345.851 415.65 351.445 415.65C357.083 415.65 360.607 418.602 361.18 423.403H368.492C368.184 415.298 361.488 409.395 351.445 409.395C341.534 409.395 334.618 414.99 334.618 422.83ZM379.901 399.132V410.188H373.074V416.487H379.901V444.107C379.901 452.917 383.161 456.352 391.575 456.352C393.381 456.352 395.495 456.22 396.42 456V449.569C395.891 449.657 394.129 449.789 393.248 449.789C389.328 449.789 387.566 447.895 387.566 443.71V416.487H396.464V410.188H387.566V399.132H379.901ZM418.885 450.274C413.379 450.274 409.723 447.41 409.723 443.049C409.723 438.732 413.247 436.001 419.414 435.605L431.66 434.856V438.6C431.66 445.208 426.11 450.274 418.885 450.274ZM417.167 456.793C423.334 456.793 429.149 453.357 431.88 448.115H432.056V456H439.325V424.328C439.325 415.21 432.541 409.395 421.793 409.395C410.956 409.395 404.173 415.474 403.644 423.403H411.045C412.014 418.91 415.714 416.135 421.617 416.135C427.96 416.135 431.66 419.483 431.66 425.077V428.909L418.533 429.658C407.961 430.275 401.926 435.208 401.926 443.049C401.926 451.287 408.049 456.793 417.167 456.793ZM449.06 456H456.724V429.041C456.724 421.289 461.438 416.179 468.662 416.179C475.71 416.179 479.19 420.232 479.19 427.632V456H486.854V426.266C486.854 415.871 481.04 409.395 470.996 409.395C463.904 409.395 459.015 412.567 456.46 417.5H456.284V410.188H449.06V456ZM513.989 456.793C520.597 456.793 525.839 453.533 528.79 448.247H528.922V456H536.234V392.436H528.57V417.633H528.393C525.662 412.611 520.376 409.395 513.813 409.395C502.272 409.395 494.387 418.734 494.387 433.094C494.387 447.454 502.316 456.793 513.989 456.793ZM515.443 416.135C523.328 416.135 528.614 422.875 528.614 433.094C528.614 443.358 523.328 450.053 515.443 450.053C507.338 450.053 502.228 443.49 502.228 433.094C502.228 422.742 507.338 416.135 515.443 416.135ZM546.982 456H554.647V410.188H546.982V456ZM550.815 402.039C553.502 402.039 555.616 399.88 555.616 397.237C555.616 394.55 553.502 392.436 550.815 392.436C548.172 392.436 546.013 394.55 546.013 397.237C546.013 399.88 548.172 402.039 550.815 402.039ZM564.999 456H572.663V429.041C572.663 421.289 577.377 416.179 584.601 416.179C591.649 416.179 595.129 420.232 595.129 427.632V456H602.794V426.266C602.794 415.871 596.979 409.395 586.936 409.395C579.844 409.395 574.954 412.567 572.399 417.5H572.223V410.188H564.999V456ZM631.206 449.613C623.321 449.613 618.167 443.181 618.167 432.918C618.167 422.654 623.321 416.135 631.206 416.135C639.179 416.135 644.509 422.83 644.509 432.918C644.509 443.005 639.179 449.613 631.206 449.613ZM631.47 473.268C644.112 473.268 652.173 465.999 652.173 455.075V410.188H644.861V417.897H644.729C641.69 412.567 636.316 409.395 629.84 409.395C617.991 409.395 610.326 418.558 610.326 432.918C610.326 447.146 617.991 456.352 629.664 456.352C636.095 456.352 641.513 453.093 644.333 448.115H644.509V455.339C644.509 462.167 639.707 466.748 631.778 466.748C626.052 466.748 621.515 463.973 620.017 459.788H612.132C613.41 467.585 621.383 473.268 631.47 473.268ZM103.444 507.132V518.188H96.6167V524.487H103.444V552.107C103.444 560.917 106.704 564.352 115.118 564.352C116.924 564.352 119.038 564.22 119.963 564V557.569C119.435 557.657 117.673 557.789 116.792 557.789C112.871 557.789 111.109 555.895 111.109 551.71V524.487H120.007V518.188H111.109V507.132H103.444ZM128.597 564H136.262V537.306C136.262 529.377 140.975 524.179 148.596 524.179C155.776 524.179 159.432 528.54 159.432 535.808V564H167.096V534.398C167.096 524.179 161.018 517.395 150.974 517.395C144.014 517.395 138.993 520.391 136.438 525.5H136.262V500.436H128.597V564ZM195.2 524.047C202.424 524.047 207.226 529.509 207.402 537.174H182.514C182.998 529.553 188.02 524.047 195.2 524.047ZM207.226 550.873C205.948 555.19 201.676 558.141 195.861 558.141C187.624 558.141 182.47 552.371 182.47 543.605V543.164H215.331V540.257C215.331 526.381 207.71 517.395 195.332 517.395C182.69 517.395 174.585 527.042 174.585 541.27C174.585 555.675 182.558 564.793 195.685 564.793C205.684 564.793 213.437 558.89 214.758 550.873H207.226ZM279.644 533.209C278.675 524.972 271.847 517.395 260.394 517.395C247.752 517.395 239.338 526.646 239.338 541.094C239.338 555.851 247.796 564.793 260.482 564.793C270.878 564.793 278.543 558.362 279.732 549.243H272.199C270.878 554.75 266.781 558.053 260.526 558.053C252.597 558.053 247.135 551.754 247.135 541.094C247.135 530.698 252.509 524.135 260.438 524.135C267.178 524.135 271.054 528.232 272.155 533.209H279.644ZM305.765 564.793C318.408 564.793 326.953 555.675 326.953 541.094C326.953 526.47 318.408 517.395 305.765 517.395C293.079 517.395 284.533 526.47 284.533 541.094C284.533 555.675 293.079 564.793 305.765 564.793ZM305.765 558.053C297.66 558.053 292.33 551.886 292.33 541.094C292.33 530.302 297.66 524.135 305.765 524.135C313.871 524.135 319.157 530.302 319.157 541.094C319.157 551.886 313.871 558.053 305.765 558.053ZM334.706 564H342.371V537.041C342.371 529.289 347.084 524.179 354.308 524.179C361.356 524.179 364.836 528.232 364.836 535.632V564H372.501V534.266C372.501 523.871 366.686 517.395 356.643 517.395C349.551 517.395 344.661 520.567 342.107 525.5H341.93V518.188H334.706V564ZM384.747 507.132V518.188H377.919V524.487H384.747V552.107C384.747 560.917 388.006 564.352 396.42 564.352C398.226 564.352 400.34 564.22 401.265 564V557.569C400.737 557.657 398.975 557.789 398.094 557.789C394.173 557.789 392.411 555.895 392.411 551.71V524.487H401.31V518.188H392.411V507.132H384.747ZM426.55 524.047C433.774 524.047 438.576 529.509 438.752 537.174H413.864C414.348 529.553 419.37 524.047 426.55 524.047ZM438.576 550.873C437.298 555.19 433.025 558.141 427.211 558.141C418.974 558.141 413.82 552.371 413.82 543.605V543.164H446.681V540.257C446.681 526.381 439.06 517.395 426.682 517.395C414.04 517.395 405.935 527.042 405.935 541.27C405.935 555.675 413.908 564.793 427.035 564.793C437.034 564.793 444.787 558.89 446.108 550.873H438.576ZM469.763 546.556L480.731 564H489.233L473.992 540.786L489.453 518.188H480.908L470.027 535.368H469.851L458.839 518.188H450.293L465.622 541.094L450.029 564H458.53L469.587 546.556H469.763ZM498.395 507.132V518.188H491.568V524.487H498.395V552.107C498.395 560.917 501.655 564.352 510.069 564.352C511.875 564.352 513.989 564.22 514.914 564V557.569C514.386 557.657 512.624 557.789 511.743 557.789C507.822 557.789 506.06 555.895 506.06 551.71V524.487H514.958V518.188H506.06V507.132H498.395ZM123.751 671.793C135.469 671.793 143.221 662.498 143.221 648.094C143.221 633.734 135.425 624.395 123.884 624.395C117.408 624.395 112.078 627.611 109.215 632.853H109.039V607.436H101.374V671H108.686V663.247H108.863C111.814 668.533 117.056 671.793 123.751 671.793ZM122.254 631.135C130.359 631.135 135.381 637.698 135.381 648.094C135.381 658.578 130.359 665.053 122.254 665.053C114.501 665.053 108.995 658.314 108.995 648.094C108.995 637.919 114.501 631.135 122.254 631.135ZM169.387 631.047C176.611 631.047 181.413 636.509 181.589 644.174H156.701C157.185 636.553 162.207 631.047 169.387 631.047ZM181.413 657.873C180.135 662.19 175.862 665.141 170.048 665.141C161.81 665.141 156.657 659.371 156.657 650.605V650.164H189.518V647.257C189.518 633.381 181.897 624.395 169.519 624.395C156.877 624.395 148.772 634.042 148.772 648.27C148.772 662.675 156.745 671.793 169.872 671.793C179.871 671.793 187.624 665.89 188.945 657.873H181.413ZM199.737 671H207.402V631.487H216.741V625.188H207.358V620.122C207.358 615.585 209.34 613.383 213.481 613.383C214.758 613.383 216.036 613.515 216.961 613.647V607.436C215.86 607.26 214.01 607.084 212.292 607.084C203.834 607.084 199.737 611.268 199.737 620.078V625.188H193.35V631.487H199.737V671ZM241.453 671.793C254.095 671.793 262.641 662.675 262.641 648.094C262.641 633.47 254.095 624.395 241.453 624.395C228.766 624.395 220.221 633.47 220.221 648.094C220.221 662.675 228.766 671.793 241.453 671.793ZM241.453 665.053C233.347 665.053 228.017 658.886 228.017 648.094C228.017 637.302 233.347 631.135 241.453 631.135C249.558 631.135 254.844 637.302 254.844 648.094C254.844 658.886 249.558 665.053 241.453 665.053ZM270.393 671H278.058V642.456C278.058 635.98 281.934 631.708 287.881 631.708C289.731 631.708 291.361 631.928 291.978 632.148V624.704C291.361 624.616 290.216 624.395 288.894 624.395C283.52 624.395 279.291 627.611 277.794 632.677H277.618V625.188H270.393V671ZM314.399 631.047C321.623 631.047 326.425 636.509 326.601 644.174H301.713C302.197 636.553 307.219 631.047 314.399 631.047ZM326.425 657.873C325.147 662.19 320.875 665.141 315.06 665.141C306.823 665.141 301.669 659.371 301.669 650.605V650.164H334.53V647.257C334.53 633.381 326.909 624.395 314.531 624.395C301.889 624.395 293.784 634.042 293.784 648.27C293.784 662.675 301.757 671.793 314.884 671.793C324.883 671.793 332.636 665.89 333.957 657.873H326.425ZM379.152 631.047C386.377 631.047 391.178 636.509 391.354 644.174H366.466C366.951 636.553 371.972 631.047 379.152 631.047ZM391.178 657.873C389.901 662.19 385.628 665.141 379.813 665.141C371.576 665.141 366.422 659.371 366.422 650.605V650.164H399.283V647.257C399.283 633.381 391.663 624.395 379.285 624.395C366.642 624.395 358.537 634.042 358.537 648.27C358.537 662.675 366.51 671.793 379.637 671.793C389.636 671.793 397.389 665.89 398.711 657.873H391.178ZM407.036 671H414.701V644.041C414.701 636.289 419.414 631.179 426.638 631.179C433.686 631.179 437.166 635.232 437.166 642.632V671H444.831V641.266C444.831 630.871 439.016 624.395 428.973 624.395C421.881 624.395 416.991 627.567 414.436 632.5H414.26V625.188H407.036V671ZM457.077 614.132V625.188H450.249V631.487H457.077V659.107C457.077 667.917 460.336 671.352 468.75 671.352C470.556 671.352 472.67 671.22 473.595 671V664.569C473.067 664.657 471.305 664.789 470.424 664.789C466.503 664.789 464.741 662.895 464.741 658.71V631.487H473.639V625.188H464.741V614.132H457.077ZM498.88 631.047C506.104 631.047 510.906 636.509 511.082 644.174H486.194C486.678 636.553 491.7 631.047 498.88 631.047ZM510.906 657.873C509.628 662.19 505.355 665.141 499.541 665.141C491.303 665.141 486.15 659.371 486.15 650.605V650.164H519.011V647.257C519.011 633.381 511.39 624.395 499.012 624.395C486.37 624.395 478.265 634.042 478.265 648.27C478.265 662.675 486.238 671.793 499.365 671.793C509.364 671.793 517.117 665.89 518.438 657.873H510.906ZM526.764 671H534.428V642.456C534.428 635.98 538.305 631.708 544.251 631.708C546.101 631.708 547.731 631.928 548.348 632.148V624.704C547.731 624.616 546.586 624.395 545.264 624.395C539.89 624.395 535.662 627.611 534.164 632.677H533.988V625.188H526.764V671ZM555 671H562.664V625.188H555V671ZM558.832 617.039C561.519 617.039 563.633 614.88 563.633 612.237C563.633 609.55 561.519 607.436 558.832 607.436C556.189 607.436 554.03 609.55 554.03 612.237C554.03 614.88 556.189 617.039 558.832 617.039ZM573.016 671H580.681V644.041C580.681 636.289 585.394 631.179 592.618 631.179C599.666 631.179 603.146 635.232 603.146 642.632V671H610.811V641.266C610.811 630.871 604.996 624.395 594.953 624.395C587.861 624.395 582.971 627.567 580.416 632.5H580.24V625.188H573.016V671ZM639.223 664.613C631.338 664.613 626.184 658.181 626.184 647.918C626.184 637.654 631.338 631.135 639.223 631.135C647.196 631.135 652.526 637.83 652.526 647.918C652.526 658.005 647.196 664.613 639.223 664.613ZM639.487 688.268C652.129 688.268 660.191 680.999 660.191 670.075V625.188H652.878V632.897H652.746C649.707 627.567 644.333 624.395 637.857 624.395C626.008 624.395 618.343 633.558 618.343 647.918C618.343 662.146 626.008 671.352 637.681 671.352C644.112 671.352 649.531 668.093 652.35 663.115H652.526V670.339C652.526 677.167 647.724 681.748 639.795 681.748C634.069 681.748 629.532 678.973 628.034 674.788H620.149C621.427 682.585 629.4 688.268 639.487 688.268ZM676.665 671.44C679.484 671.44 681.687 669.238 681.687 666.419C681.687 663.6 679.484 661.397 676.665 661.397C673.846 661.397 671.643 663.6 671.643 666.419C671.643 669.238 673.846 671.44 676.665 671.44Z" fill="#F2F3EE"/>
<path d="M1265.06 443.28L1267.55 431.259L1274.93 431.582C1280.31 431.824 1281.2 432.873 1281.84 437.633L1282 439.004H1283.77C1284.41 434.002 1286.09 426.338 1287.54 421.175H1285.77L1285.05 422.546C1282.4 427.225 1281.04 428.274 1275.58 428.516L1268.11 428.839L1272.93 405.926H1283.53C1291.88 405.926 1292.6 407.621 1293 417.544L1294.93 417.383C1295.57 411.816 1296.29 407.298 1297.42 402.377C1285.77 402.78 1270.2 402.861 1260.72 402.377L1260.24 404.716L1263.29 405.2C1266.42 405.684 1266.26 406.814 1264.42 415.608L1258.64 443.28C1256.55 452.962 1256.15 454.253 1252.85 454.737L1249.56 455.221L1249 457.56C1255.58 457.157 1263.93 457.157 1270.2 457.56L1270.76 455.221L1265.86 454.737C1262.81 454.414 1262.97 452.962 1265.06 443.28Z" fill="#242424"/>
<path d="M1314.72 430.049L1329.86 457.48C1333.1 457.318 1336.9 457.318 1340.14 457.48L1340.63 455.14L1338.68 454.817C1335.77 454.333 1335.61 453.607 1331.97 447.314L1322.33 430.775C1331.88 429.323 1340.22 423.434 1340.22 415.608C1340.22 406.653 1332.69 402.377 1319.99 402.377C1317.4 402.377 1315.29 402.619 1312.3 402.619C1310.68 402.619 1308.82 402.538 1306.55 402.377L1306.06 404.716L1309.14 405.2C1312.13 405.684 1312.22 406.814 1310.03 416.657L1304.36 443.523C1302.34 453.042 1301.94 454.253 1298.62 454.737L1295.3 455.221L1294.81 457.56C1301.37 457.076 1307.6 457.076 1314.48 457.56L1314.97 455.221L1311.81 454.737C1308.74 454.253 1308.98 452.881 1310.92 443.523L1318.93 405.2C1327.76 405.039 1333.02 408.186 1333.02 415.124C1333.02 422.143 1328.57 427.629 1314.72 430.049Z" fill="#242424"/>
<path d="M1380.03 401.335C1363.32 401.335 1348.96 415.652 1348.96 435.55C1348.96 449.543 1356.79 458.602 1369.94 458.602C1386.65 458.602 1401.02 444.609 1401.02 424.549C1401.02 410.475 1393.03 401.335 1380.03 401.335ZM1377.85 404.571C1387.21 404.571 1393.75 412.578 1393.75 425.682C1393.75 442.02 1384.71 455.366 1371.88 455.366C1362.84 455.366 1356.22 447.682 1356.22 434.498C1356.22 418.483 1365.02 404.571 1377.85 404.571Z" fill="#242424"/>
<path d="M1469.54 457.56L1470.02 455.221L1467.21 454.737C1464.24 454.091 1464.08 453.042 1466 443.361L1471.71 416.657C1473.72 406.975 1474.2 405.684 1477.41 405.2L1480.71 404.716L1481.19 402.377C1476.85 402.78 1472.51 402.78 1468.74 402.377L1439.41 445.217L1427.76 402.457C1423.74 402.861 1419.32 402.78 1415.71 402.377L1415.23 404.716L1417.32 405.442C1420.93 406.653 1420.77 409.153 1419.89 413.429L1412.98 445.862C1411.45 453.042 1409.84 453.93 1406.87 454.656L1404.62 455.221L1404.14 457.56C1408.96 457.238 1415.79 457.238 1420.69 457.56L1421.17 455.221L1419.49 454.656C1416.03 453.607 1415.39 452.639 1416.67 446.104L1423.58 411.574L1434.75 452.397C1435.88 452.316 1437 452.316 1438.12 452.397L1466.41 411.493L1459.82 443.361C1457.81 453.042 1457.17 454.172 1453.87 454.737L1450.82 455.221L1450.34 457.56C1456.12 457.157 1463.91 457.157 1469.54 457.56Z" fill="#242424"/>
<path d="M1283.52 487.317C1290.12 487.317 1294.22 491.565 1295.59 499.66L1296.23 503.347L1298.41 502.866C1299.13 497.095 1299.93 493.649 1301.06 488.519C1296.96 485.794 1291.41 484.111 1285.45 484.111C1269.04 484.111 1254.73 498.297 1254.73 518.175C1254.73 531.96 1262.29 540.857 1276.69 540.857C1282.16 540.857 1288.03 539.575 1292.29 537.25C1293.98 532.121 1295.83 527.873 1297.92 522.423L1295.91 521.862L1294.14 524.667C1288.03 534.365 1283.77 537.731 1278.05 537.731C1268.72 537.731 1261.97 529.796 1261.97 516.572C1261.97 500.542 1270.98 487.317 1283.52 487.317Z" fill="#242424"/>
<path d="M1323.92 498.831C1326.03 489.15 1326.36 487.94 1329.68 487.456L1333.09 486.972L1333.58 484.632C1327.41 485.035 1319.95 485.035 1313.86 484.632L1313.38 486.972L1316.46 487.456C1319.62 487.94 1319.54 489.15 1317.43 498.831L1311.67 525.616C1309.57 535.298 1309.24 536.508 1305.91 536.992L1302.59 537.476L1302.1 539.816C1308.35 539.412 1315.81 539.412 1321.81 539.816L1322.3 537.476L1319.14 536.992C1316.06 536.508 1316.14 535.298 1318.16 525.616L1321 512.466H1349.15L1346.31 525.616C1344.21 535.298 1343.8 536.508 1340.47 536.992L1337.15 537.476L1336.66 539.816C1342.91 539.412 1350.45 539.412 1356.37 539.816L1356.86 537.476L1353.7 536.992C1350.61 536.508 1350.7 535.298 1352.8 525.616L1358.56 498.831C1360.67 489.15 1361 487.94 1364.32 487.456L1367.73 486.972L1368.22 484.632C1362.13 485.035 1354.51 485.035 1348.42 484.632L1348.02 486.972L1351.02 487.456C1354.18 487.94 1354.18 489.15 1352.07 498.831L1349.8 509.239H1321.65L1323.92 498.831Z" fill="#242424"/>
<path d="M1376.32 529.578L1380.95 520.952H1401.34L1402.56 529.658C1403.45 536.107 1401.83 536.349 1398.34 537.075L1396.22 537.478L1395.82 539.816C1402.23 539.574 1407.27 539.574 1414.58 539.816L1415.07 537.478L1413.28 536.994C1410.85 536.43 1410.03 535.543 1409.06 529.175L1402.15 484.111H1401.02C1398.01 485.804 1393.7 487.175 1389.07 487.416L1388.59 489.432L1390.94 489.915C1392.4 490.238 1392.89 490.802 1392.49 492.576C1392 494.591 1389.4 499.186 1383.22 510.15L1372.66 528.852C1369.25 534.817 1366.81 536.268 1363.56 537.075L1361.94 537.478L1361.45 539.816C1367.62 539.493 1374.61 539.412 1379.73 539.816L1380.3 537.478L1378.43 537.075C1374.45 536.188 1373.64 534.576 1376.32 529.578ZM1382.49 517.969L1397.04 490.802L1400.93 517.969H1382.49Z" fill="#242424"/>
<path d="M1453.43 484.111C1436.73 484.111 1422.36 498.297 1422.36 518.014C1422.36 531.88 1430.19 540.857 1443.35 540.857C1460.05 540.857 1474.42 526.991 1474.42 507.114C1474.42 493.168 1466.43 484.111 1453.43 484.111ZM1451.26 487.317C1460.62 487.317 1467.16 495.252 1467.16 508.236C1467.16 524.426 1458.12 537.651 1445.28 537.651C1436.24 537.651 1429.62 530.037 1429.62 516.972C1429.62 501.103 1438.42 487.317 1451.26 487.317Z" fill="#242424"/>
<path d="M1499.2 537.811C1491.25 537.811 1486.39 532.041 1485.66 523.464L1485.5 521.621L1483.23 522.102C1482.5 526.751 1481.53 531.399 1480.15 536.048C1484.77 539.014 1491.9 540.857 1497.57 540.857C1509.65 540.857 1518.16 533.243 1518.16 524.106C1518.16 508.557 1494.66 509.759 1494.66 496.374C1494.66 490.122 1499.03 487.077 1504.3 487.077C1511.03 487.077 1515.65 491.805 1515.73 501.103L1518 500.622C1518.73 496.374 1519.78 492.206 1520.75 488.76C1516.62 485.794 1510.54 484.111 1505.84 484.111C1495.3 484.111 1488.17 490.122 1488.17 498.618C1488.17 514.648 1511.43 513.125 1511.43 526.35C1511.43 533.323 1505.68 537.811 1499.2 537.811Z" fill="#242424"/>
<path d="M1277.78 625.194V577.022H1294.81V568.449H1250.56V577.022H1267.63V625.194H1277.78Z" fill="#242424"/>
<path d="M1323.47 567.408C1306.82 567.408 1296.38 578.631 1296.38 596.582C1296.38 614.531 1306.82 625.715 1323.47 625.715C1340.08 625.715 1350.52 614.531 1350.52 596.582C1350.52 578.631 1340.08 567.408 1323.47 567.408ZM1323.47 576.011C1333.63 576.011 1340.12 583.988 1340.12 596.582C1340.12 609.134 1333.63 617.112 1323.47 617.112C1313.26 617.112 1306.82 609.134 1306.82 596.582C1306.82 583.988 1313.26 576.011 1323.47 576.011Z" fill="#242424"/>
<path d="M1278.69 651.225C1262.04 651.225 1251.6 662.546 1251.6 680.659C1251.6 698.768 1262.04 710.053 1278.69 710.053C1295.3 710.053 1305.75 698.768 1305.75 680.659C1305.75 662.546 1295.3 651.225 1278.69 651.225ZM1278.69 659.905C1288.86 659.905 1295.34 667.954 1295.34 680.659C1295.34 693.323 1288.86 701.373 1278.69 701.373C1268.49 701.373 1262.04 693.323 1262.04 680.659C1262.04 667.954 1268.49 659.905 1278.69 659.905Z" fill="#242424"/>
<path d="M1324.19 660.487H1335.41C1341.8 660.487 1345.76 664.183 1345.76 670.159C1345.76 676.293 1342.04 679.872 1335.61 679.872H1324.19V660.487ZM1324.19 687.659H1335.14L1346.27 709.011H1357.81L1345.45 686.124C1352.2 683.687 1356.12 677.433 1356.12 669.923C1356.12 659.071 1348.78 652.266 1336.55 652.266H1314.07V709.011H1324.19V687.659Z" fill="#242424"/>
<path d="M1364.05 652.266V709.011H1384.86C1401.92 709.011 1411.95 698.473 1411.95 680.501C1411.95 662.531 1401.88 652.266 1384.86 652.266H1364.05ZM1374.24 660.84H1383.8C1395.17 660.84 1401.56 667.839 1401.56 680.54C1401.56 693.478 1395.25 700.438 1383.8 700.438H1374.24V660.84Z" fill="#242424"/>
<path d="M1456.72 700.438H1430.34V684.236H1455.28V676.177H1430.34V660.84H1456.72V652.266H1420.28V709.011H1456.72V700.438Z" fill="#242424"/>
<path d="M1475.81 660.487H1487.16C1493.63 660.487 1497.64 664.183 1497.64 670.159C1497.64 676.293 1493.87 679.872 1487.36 679.872H1475.81V660.487ZM1475.81 687.659H1486.88L1498.15 709.011H1509.82L1497.32 686.124C1504.15 683.687 1508.12 677.433 1508.12 669.923C1508.12 659.071 1500.69 652.266 1488.31 652.266H1465.57V709.011H1475.81V687.659Z" fill="#242424"/>
<path d="M1259.31 363.852H1260.97L1256.29 351.358H1254.72L1250.04 363.852H1251.71L1252.98 360.276H1258.03L1259.31 363.852ZM1255.48 353.254H1255.53L1257.57 358.951H1253.45L1255.48 353.254Z" fill="#242424"/>
<path d="M1265.66 351.358V363.852H1267.19V359.393H1270.03C1272.34 359.393 1273.99 357.739 1273.99 355.367C1273.99 353.003 1272.36 351.358 1270.05 351.358H1265.66ZM1267.19 352.743H1269.65C1271.41 352.743 1272.41 353.713 1272.41 355.367C1272.41 357.029 1271.41 358.007 1269.65 358.007H1267.19V352.743Z" fill="#242424"/>
<path d="M1277.63 363.852V351.358H1276.07V363.852H1277.63Z" fill="#242424"/>
<path d="M1287.52 362.449H1281.29V358.155H1287.2V356.769H1281.29V352.76H1287.52V351.358H1279.72V363.852H1287.52V362.449Z" fill="#242424"/>
<path d="M1294.24 363.852V352.76H1297.94V351.358H1289.09V352.76H1292.78V363.852H1294.24Z" fill="#242424"/>
<path d="M1315.64 363.852V351.358H1313.8L1309.43 361.869H1309.36L1304.98 351.358H1303.14V363.852H1304.62V354.224H1304.68L1308.72 363.852H1310.06L1314.1 354.224H1314.16V363.852H1315.64Z" fill="#242424"/>
<path d="M1322.93 351.358C1319.4 351.358 1317.2 353.771 1317.2 357.609C1317.2 361.447 1319.4 363.852 1322.93 363.852C1326.45 363.852 1328.65 361.447 1328.65 357.609C1328.65 353.771 1326.45 351.358 1322.93 351.358ZM1322.93 352.749C1325.47 352.749 1327.06 354.626 1327.06 357.609C1327.06 360.584 1325.47 362.461 1322.93 362.461C1320.39 362.461 1318.79 360.584 1318.79 357.609C1318.79 354.626 1320.39 352.749 1322.93 352.749Z" fill="#242424"/>
<path d="M1332.26 363.852V354.076H1332.34L1339.12 363.852H1340.63V351.358H1339.1V361.168H1339.02L1332.24 351.358H1330.73V363.852H1332.26Z" fill="#242424"/>
<path d="M1343.23 351.358V363.852H1347.34C1350.98 363.852 1353.12 361.54 1353.12 357.6C1353.12 353.669 1350.97 351.358 1347.34 351.358H1343.23ZM1344.76 352.76H1347.24C1350.02 352.76 1351.56 354.492 1351.56 357.618C1351.56 360.718 1350.02 362.449 1347.24 362.449H1344.76V352.76Z" fill="#242424"/>
<path d="M1356.3 352.743H1359.32C1360.99 352.743 1361.99 353.635 1361.99 355.133C1361.99 356.665 1361.05 357.531 1359.39 357.531H1356.3V352.743ZM1356.3 358.908H1359.39L1362.16 363.852H1364.05L1361.06 358.665C1362.68 358.172 1363.66 356.821 1363.66 355.081C1363.66 352.83 1362.03 351.358 1359.53 351.358H1354.68V363.852H1356.3V358.908Z" fill="#242424"/>
<path d="M1366.66 363.852V351.358H1365.61V363.852H1366.66Z" fill="#242424"/>
<path d="M1377.49 363.852H1379.15L1374.47 351.358H1372.9L1368.22 363.852H1369.88L1371.16 360.276H1376.21L1377.49 363.852ZM1373.66 353.254H1373.71L1375.74 358.951H1371.62L1373.66 353.254Z" fill="#242424"/>
<path d="M1381.72 363.852V354.076H1381.8L1388.58 363.852H1390.08V351.358H1388.56V361.168H1388.48L1381.69 351.358H1380.19V363.852H1381.72Z" fill="#242424"/>
<path d="M1403.62 362.449H1397.8V358.155H1403.32V356.769H1397.8V352.76H1403.62V351.358H1396.33V363.852H1403.62V362.449Z" fill="#242424"/>
<path d="M1405.18 363.852H1406.94L1410.28 358.873H1410.34L1413.64 363.852H1415.5L1411.31 357.661V357.609L1415.59 351.358H1413.83L1410.47 356.38H1410.41L1407.1 351.358H1405.23L1409.41 357.531V357.592L1405.18 363.852Z" fill="#242424"/>
<path d="M1427.05 363.852V351.358H1425.5V356.761H1418.7V351.358H1417.15V363.852H1418.7V358.163H1425.5V363.852H1427.05Z" fill="#242424"/>
<path d="M1430.69 363.852V351.358H1429.13V363.852H1430.69Z" fill="#242424"/>
<path d="M1437.96 363.852C1440.59 363.852 1442.14 362.545 1442.14 360.345C1442.14 358.683 1441.07 357.488 1439.39 357.271V357.202C1440.58 356.986 1441.52 355.773 1441.52 354.475C1441.52 352.604 1440.09 351.358 1437.98 351.358H1433.29V363.852H1437.96ZM1434.83 352.734H1437.62C1439.12 352.734 1439.96 353.418 1439.96 354.657C1439.96 356.007 1438.97 356.743 1437.15 356.743H1434.83V352.734ZM1434.83 362.475V358.085H1437.58C1439.55 358.085 1440.56 358.821 1440.56 360.267C1440.56 361.713 1439.58 362.475 1437.73 362.475H1434.83Z" fill="#242424"/>
<path d="M1445.27 363.852V351.358H1443.71V363.852H1445.27Z" fill="#242424"/>
<path d="M1452.29 363.852V352.76H1456.2V351.358H1446.83V352.76H1450.74V363.852H1452.29Z" fill="#242424"/>
<path d="M1459.32 363.852V351.358H1457.76V363.852H1459.32Z" fill="#242424"/>
<path d="M1467.13 351.358C1463.61 351.358 1461.41 353.771 1461.41 357.609C1461.41 361.447 1463.61 363.852 1467.13 363.852C1470.65 363.852 1472.86 361.447 1472.86 357.609C1472.86 353.771 1470.65 351.358 1467.13 351.358ZM1467.13 352.749C1469.67 352.749 1471.27 354.626 1471.27 357.609C1471.27 360.584 1469.67 362.461 1467.13 362.461C1464.59 362.461 1463 360.584 1463 357.609C1463 354.626 1464.59 352.749 1467.13 352.749Z" fill="#242424"/>
<path d="M1475.95 363.852V354.076H1476.03L1482.81 363.852H1484.31V351.358H1482.78V361.168H1482.71L1475.92 351.358H1474.42V363.852H1475.95Z" fill="#242424"/>
<path d="M1379 576.293V571.64H1380.66V571.052H1376.68V571.64H1378.34V576.293H1379ZM1381.1 576.293H1381.74V572.515H1381.1V576.293ZM1381.42 571.843C1381.64 571.843 1381.82 571.666 1381.82 571.448C1381.82 571.226 1381.64 571.052 1381.42 571.052C1381.2 571.052 1381.02 571.226 1381.02 571.448C1381.02 571.666 1381.2 571.843 1381.42 571.843ZM1382.6 576.293H1383.23V574.07C1383.23 573.431 1383.62 573.009 1384.22 573.009C1384.81 573.009 1385.09 573.343 1385.09 573.954V576.293H1385.73V573.841C1385.73 572.984 1385.25 572.45 1384.41 572.45C1383.83 572.45 1383.42 572.712 1383.21 573.118H1383.2V572.515H1382.6V576.293ZM1389.69 573.754C1389.61 573.075 1389.05 572.45 1388.1 572.45C1387.05 572.45 1386.35 573.213 1386.35 574.404C1386.35 575.621 1387.05 576.358 1388.11 576.358C1388.97 576.358 1389.6 575.828 1389.7 575.076H1389.08C1388.97 575.53 1388.63 575.803 1388.11 575.803C1387.45 575.803 1387 575.283 1387 574.404C1387 573.547 1387.44 573.006 1388.1 573.006C1388.66 573.006 1388.98 573.343 1389.07 573.754H1389.69ZM1390.32 576.293H1390.95V572.515H1390.32V576.293ZM1390.64 571.843C1390.86 571.843 1391.03 571.666 1391.03 571.448C1391.03 571.226 1390.86 571.052 1390.64 571.052C1390.42 571.052 1390.24 571.226 1390.24 571.448C1390.24 571.666 1390.42 571.843 1390.64 571.843ZM1393.25 576.358C1393.8 576.358 1394.23 576.089 1394.48 575.654H1394.49V576.293H1395.09V571.052H1394.46V573.129H1394.44C1394.22 572.715 1393.78 572.45 1393.23 572.45C1392.28 572.45 1391.62 573.22 1391.62 574.404C1391.62 575.588 1392.28 576.358 1393.25 576.358ZM1393.37 573.006C1394.02 573.006 1394.46 573.561 1394.46 574.404C1394.46 575.25 1394.02 575.803 1393.37 575.803C1392.7 575.803 1392.27 575.261 1392.27 574.404C1392.27 573.551 1392.7 573.006 1393.37 573.006ZM1399.07 572.515H1398.43V574.735C1398.43 575.377 1398.06 575.799 1397.44 575.799C1396.86 575.799 1396.57 575.468 1396.57 574.854V572.515H1395.93V574.967C1395.93 575.824 1396.42 576.358 1397.25 576.358C1397.83 576.358 1398.22 576.115 1398.45 575.679H1398.47V576.293H1399.07V572.515ZM1399.89 576.293H1400.53V574.07C1400.53 573.431 1400.92 573.009 1401.52 573.009C1402.1 573.009 1402.39 573.343 1402.39 573.954V576.293H1403.02V573.841C1403.02 572.984 1402.54 572.45 1401.71 572.45C1401.12 572.45 1400.72 572.712 1400.51 573.118H1400.49V572.515H1399.89V576.293ZM1404.04 571.604V572.515H1403.47V573.035H1404.04V575.312C1404.04 576.038 1404.31 576.322 1405.01 576.322C1405.16 576.322 1405.33 576.311 1405.41 576.293V575.763C1405.36 575.77 1405.22 575.781 1405.15 575.781C1404.82 575.781 1404.67 575.624 1404.67 575.279V573.035H1405.41V572.515H1404.67V571.604H1404.04ZM1410.78 573.754C1410.7 573.075 1410.13 572.45 1409.18 572.45C1408.14 572.45 1407.44 573.213 1407.44 574.404C1407.44 575.621 1408.14 576.358 1409.19 576.358C1410.05 576.358 1410.69 575.828 1410.79 575.076H1410.16C1410.05 575.53 1409.71 575.803 1409.19 575.803C1408.54 575.803 1408.08 575.283 1408.08 574.404C1408.08 573.547 1408.53 573.006 1409.19 573.006C1409.75 573.006 1410.07 573.343 1410.16 573.754H1410.78ZM1412.94 576.358C1413.99 576.358 1414.7 575.606 1414.7 574.404C1414.7 573.198 1413.99 572.45 1412.94 572.45C1411.89 572.45 1411.18 573.198 1411.18 574.404C1411.18 575.606 1411.89 576.358 1412.94 576.358ZM1412.94 575.803C1412.27 575.803 1411.83 575.294 1411.83 574.404C1411.83 573.514 1412.27 573.006 1412.94 573.006C1413.62 573.006 1414.05 573.514 1414.05 574.404C1414.05 575.294 1413.62 575.803 1412.94 575.803ZM1415.34 576.293H1415.98V574.07C1415.98 573.431 1416.37 573.009 1416.97 573.009C1417.55 573.009 1417.84 573.343 1417.84 573.954V576.293H1418.47V573.841C1418.47 572.984 1417.99 572.45 1417.16 572.45C1416.57 572.45 1416.17 572.712 1415.96 573.118H1415.94V572.515H1415.34V576.293ZM1422.4 572.515H1421.74L1420.69 575.621H1420.67L1419.62 572.515H1418.96L1420.35 576.293H1421L1422.4 572.515ZM1424.08 575.821C1423.62 575.821 1423.32 575.584 1423.32 575.225C1423.32 574.869 1423.61 574.644 1424.12 574.611L1425.14 574.549V574.858C1425.14 575.403 1424.68 575.821 1424.08 575.821ZM1423.94 576.358C1424.45 576.358 1424.93 576.075 1425.15 575.643H1425.17V576.293H1425.77V573.681C1425.77 572.929 1425.21 572.45 1424.32 572.45C1423.42 572.45 1422.86 572.951 1422.81 573.605H1423.43C1423.51 573.235 1423.81 573.006 1424.3 573.006C1424.83 573.006 1425.14 573.282 1425.14 573.743V574.059L1424.05 574.121C1423.17 574.172 1422.67 574.578 1422.67 575.225C1422.67 575.904 1423.18 576.358 1423.94 576.358ZM1426.61 576.293H1427.25V571.052H1426.61V576.293ZM1428.14 576.293H1428.77V571.052H1428.14V576.293ZM1429.66 576.293H1430.3V572.515H1429.66V576.293ZM1429.98 571.843C1430.2 571.843 1430.38 571.666 1430.38 571.448C1430.38 571.226 1430.2 571.052 1429.98 571.052C1429.76 571.052 1429.58 571.226 1429.58 571.448C1429.58 571.666 1429.76 571.843 1429.98 571.843ZM1431.09 573.558C1431.09 574.103 1431.44 574.433 1432.15 574.604L1432.75 574.749C1433.19 574.854 1433.34 575.011 1433.34 575.283C1433.34 575.624 1433.02 575.842 1432.51 575.842C1431.99 575.842 1431.7 575.635 1431.62 575.203H1430.99C1431.06 575.911 1431.62 576.358 1432.51 576.358C1433.35 576.358 1433.98 575.893 1433.98 575.236C1433.98 574.695 1433.7 574.397 1432.93 574.212L1432.33 574.066C1431.91 573.965 1431.71 573.787 1431.71 573.525C1431.71 573.195 1432.02 572.966 1432.48 572.966C1432.95 572.966 1433.24 573.209 1433.29 573.605H1433.9C1433.87 572.937 1433.32 572.45 1432.48 572.45C1431.66 572.45 1431.09 572.911 1431.09 573.558ZM1439.29 572.515H1438.65V574.735C1438.65 575.377 1438.28 575.799 1437.66 575.799C1437.08 575.799 1436.79 575.468 1436.79 574.854V572.515H1436.15V574.967C1436.15 575.824 1436.64 576.358 1437.47 576.358C1438.05 576.358 1438.45 576.115 1438.67 575.679H1438.69V576.293H1439.29V572.515ZM1440.32 571.604V572.515H1439.75V573.035H1440.32V575.312C1440.32 576.038 1440.59 576.322 1441.29 576.322C1441.44 576.322 1441.61 576.311 1441.69 576.293V575.763C1441.64 575.77 1441.5 575.781 1441.42 575.781C1441.1 575.781 1440.95 575.624 1440.95 575.279V573.035H1441.69V572.515H1440.95V571.604H1440.32ZM1443.84 573.558C1443.84 574.103 1444.18 574.433 1444.9 574.604L1445.5 574.749C1445.94 574.854 1446.09 575.011 1446.09 575.283C1446.09 575.624 1445.77 575.842 1445.25 575.842C1444.74 575.842 1444.45 575.635 1444.37 575.203H1443.74C1443.81 575.911 1444.36 576.358 1445.25 576.358C1446.1 576.358 1446.73 575.893 1446.73 575.236C1446.73 574.695 1446.45 574.397 1445.68 574.212L1445.08 574.066C1444.66 573.965 1444.46 573.787 1444.46 573.525C1444.46 573.195 1444.77 572.966 1445.23 572.966C1445.7 572.966 1445.99 573.209 1446.04 573.605H1446.64C1446.62 572.937 1446.06 572.45 1445.23 572.45C1444.41 572.45 1443.84 572.911 1443.84 573.558ZM1448.91 572.999C1449.51 572.999 1449.9 573.449 1449.92 574.081H1447.86C1447.9 573.452 1448.31 572.999 1448.91 572.999ZM1449.9 575.21C1449.8 575.566 1449.44 575.81 1448.96 575.81C1448.28 575.81 1447.85 575.334 1447.85 574.611V574.575H1450.58V574.335C1450.58 573.191 1449.95 572.45 1448.92 572.45C1447.87 572.45 1447.2 573.246 1447.2 574.419C1447.2 575.606 1447.86 576.358 1448.95 576.358C1449.78 576.358 1450.42 575.872 1450.53 575.21H1449.9ZM1451.22 576.293H1451.85V574.07C1451.85 573.431 1452.24 573.009 1452.84 573.009C1453.43 573.009 1453.72 573.343 1453.72 573.954V576.293H1454.35V573.841C1454.35 572.984 1453.87 572.45 1453.04 572.45C1452.45 572.45 1452.04 572.712 1451.83 573.118H1451.82V572.515H1451.22V576.293ZM1456.68 572.999C1457.28 572.999 1457.68 573.449 1457.7 574.081H1455.63C1455.67 573.452 1456.09 572.999 1456.68 572.999ZM1457.68 575.21C1457.57 575.566 1457.22 575.81 1456.74 575.81C1456.06 575.81 1455.63 575.334 1455.63 574.611V574.575H1458.35V574.335C1458.35 573.191 1457.72 572.45 1456.69 572.45C1455.65 572.45 1454.98 573.246 1454.98 574.419C1454.98 575.606 1455.64 576.358 1456.72 576.358C1457.55 576.358 1458.2 575.872 1458.3 575.21H1457.68ZM1462.15 573.754C1462.07 573.075 1461.5 572.45 1460.55 572.45C1459.51 572.45 1458.81 573.213 1458.81 574.404C1458.81 575.621 1459.51 576.358 1460.56 576.358C1461.42 576.358 1462.06 575.828 1462.16 575.076H1461.53C1461.42 575.53 1461.08 575.803 1460.56 575.803C1459.91 575.803 1459.45 575.283 1459.45 574.404C1459.45 573.547 1459.9 573.006 1460.56 573.006C1461.12 573.006 1461.44 573.343 1461.53 573.754H1462.15ZM1462.94 571.604V572.515H1462.38V573.035H1462.94V575.312C1462.94 576.038 1463.21 576.322 1463.91 576.322C1464.06 576.322 1464.24 576.311 1464.31 576.293V575.763C1464.27 575.77 1464.12 575.781 1464.05 575.781C1463.73 575.781 1463.58 575.624 1463.58 575.279V573.035H1464.32V572.515H1463.58V571.604H1462.94ZM1468.11 572.515H1467.48V574.735C1467.48 575.377 1467.11 575.799 1466.49 575.799C1465.9 575.799 1465.61 575.468 1465.61 574.854V572.515H1464.98V574.967C1464.98 575.824 1465.46 576.358 1466.29 576.358C1466.88 576.358 1467.27 576.115 1467.5 575.679H1467.51V576.293H1468.11V572.515ZM1468.87 573.558C1468.87 574.103 1469.22 574.433 1469.94 574.604L1470.54 574.749C1470.97 574.854 1471.12 575.011 1471.12 575.283C1471.12 575.624 1470.8 575.842 1470.29 575.842C1469.77 575.842 1469.48 575.635 1469.41 575.203H1468.77C1468.84 575.911 1469.4 576.358 1470.29 576.358C1471.14 576.358 1471.76 575.893 1471.76 575.236C1471.76 574.695 1471.48 574.397 1470.72 574.212L1470.11 574.066C1469.69 573.965 1469.5 573.787 1469.5 573.525C1469.5 573.195 1469.8 572.966 1470.27 572.966C1470.73 572.966 1471.03 573.209 1471.07 573.605H1471.68C1471.65 572.937 1471.1 572.45 1470.27 572.45C1469.45 572.45 1468.87 572.911 1468.87 573.558ZM1475.48 572.999C1476.08 572.999 1476.47 573.449 1476.49 574.081H1474.43C1474.47 573.452 1474.88 572.999 1475.48 572.999ZM1476.47 575.21C1476.37 575.566 1476.01 575.81 1475.53 575.81C1474.85 575.81 1474.42 575.334 1474.42 574.611V574.575H1477.15V574.335C1477.15 573.191 1476.51 572.45 1475.49 572.45C1474.44 572.45 1473.77 573.246 1473.77 574.419C1473.77 575.606 1474.43 576.358 1475.52 576.358C1476.35 576.358 1476.99 575.872 1477.1 575.21H1476.47ZM1479.33 575.766C1478.68 575.766 1478.25 575.236 1478.25 574.389C1478.25 573.543 1478.68 573.006 1479.33 573.006C1479.99 573.006 1480.43 573.558 1480.43 574.389C1480.43 575.221 1479.99 575.766 1479.33 575.766ZM1479.35 577.716C1480.4 577.716 1481.07 577.117 1481.07 576.216V572.515H1480.46V573.151H1480.45C1480.2 572.712 1479.76 572.45 1479.22 572.45C1478.24 572.45 1477.6 573.206 1477.6 574.389C1477.6 575.563 1478.24 576.322 1479.2 576.322C1479.74 576.322 1480.19 576.053 1480.42 575.643H1480.43V576.238C1480.43 576.801 1480.04 577.179 1479.38 577.179C1478.9 577.179 1478.53 576.95 1478.4 576.605H1477.75C1477.86 577.248 1478.52 577.716 1479.35 577.716ZM1483.42 572.999C1484.02 572.999 1484.42 573.449 1484.43 574.081H1482.37C1482.41 573.452 1482.83 572.999 1483.42 572.999ZM1484.42 575.21C1484.31 575.566 1483.96 575.81 1483.47 575.81C1482.79 575.81 1482.37 575.334 1482.37 574.611V574.575H1485.09V574.335C1485.09 573.191 1484.46 572.45 1483.43 572.45C1482.38 572.45 1481.71 573.246 1481.71 574.419C1481.71 575.606 1482.37 576.358 1483.46 576.358C1484.29 576.358 1484.93 575.872 1485.04 575.21H1484.42ZM1485.93 571.604V572.515H1485.37V573.035H1485.93V575.312C1485.93 576.038 1486.21 576.322 1486.9 576.322C1487.05 576.322 1487.23 576.311 1487.3 576.293V575.763C1487.26 575.77 1487.11 575.781 1487.04 575.781C1486.72 575.781 1486.57 575.624 1486.57 575.279V573.035H1487.31V572.515H1486.57V571.604H1485.93ZM1492.68 573.754C1492.59 573.075 1492.03 572.45 1491.08 572.45C1490.03 572.45 1489.33 573.213 1489.33 574.404C1489.33 575.621 1490.04 576.358 1491.09 576.358C1491.95 576.358 1492.58 575.828 1492.68 575.076H1492.06C1491.95 575.53 1491.61 575.803 1491.09 575.803C1490.43 575.803 1489.98 575.283 1489.98 574.404C1489.98 573.547 1490.43 573.006 1491.08 573.006C1491.64 573.006 1491.96 573.343 1492.05 573.754H1492.68ZM1493.27 576.293H1493.9V573.939C1493.9 573.405 1494.22 573.053 1494.71 573.053C1494.87 573.053 1495 573.071 1495.05 573.089V572.476C1495 572.468 1494.91 572.45 1494.8 572.45C1494.35 572.45 1494 572.715 1493.88 573.133H1493.86V572.515H1493.27V576.293ZM1496.75 575.821C1496.3 575.821 1495.99 575.584 1495.99 575.225C1495.99 574.869 1496.28 574.644 1496.8 574.611L1497.81 574.549V574.858C1497.81 575.403 1497.35 575.821 1496.75 575.821ZM1496.61 576.358C1497.12 576.358 1497.6 576.075 1497.83 575.643H1497.84V576.293H1498.45V573.681C1498.45 572.929 1497.88 572.45 1496.99 572.45C1496.1 572.45 1495.53 572.951 1495.49 573.605H1496.1C1496.18 573.235 1496.49 573.006 1496.98 573.006C1497.5 573.006 1497.81 573.282 1497.81 573.743V574.059L1496.72 574.121C1495.85 574.172 1495.35 574.578 1495.35 575.225C1495.35 575.904 1495.86 576.358 1496.61 576.358ZM1499.19 573.558C1499.19 574.103 1499.53 574.433 1500.25 574.604L1500.85 574.749C1501.28 574.854 1501.44 575.011 1501.44 575.283C1501.44 575.624 1501.12 575.842 1500.6 575.842C1500.09 575.842 1499.8 575.635 1499.72 575.203H1499.08C1499.16 575.911 1499.71 576.358 1500.6 576.358C1501.45 576.358 1502.07 575.893 1502.07 575.236C1502.07 574.695 1501.8 574.397 1501.03 574.212L1500.43 574.066C1500 573.965 1499.81 573.787 1499.81 573.525C1499.81 573.195 1500.12 572.966 1500.58 572.966C1501.05 572.966 1501.34 573.209 1501.39 573.605H1501.99C1501.97 572.937 1501.41 572.45 1500.58 572.45C1499.76 572.45 1499.19 572.911 1499.19 573.558ZM1503.27 576.329C1503.5 576.329 1503.69 576.147 1503.69 575.915C1503.69 575.683 1503.5 575.501 1503.27 575.501C1503.04 575.501 1502.85 575.683 1502.85 575.915C1502.85 576.147 1503.04 576.329 1503.27 576.329ZM1505.9 571.052V576.293H1506.56V574.422H1507.77C1508.76 574.422 1509.47 573.729 1509.47 572.734C1509.47 571.742 1508.77 571.052 1507.78 571.052H1505.9ZM1506.56 571.633H1507.61C1508.36 571.633 1508.79 572.04 1508.79 572.734C1508.79 573.431 1508.36 573.841 1507.61 573.841H1506.56V571.633ZM1510.12 576.293H1510.76V573.939C1510.76 573.405 1511.08 573.053 1511.57 573.053C1511.73 573.053 1511.86 573.071 1511.91 573.089V572.476C1511.86 572.468 1511.77 572.45 1511.66 572.45C1511.21 572.45 1510.86 572.715 1510.74 573.133H1510.72V572.515H1510.12V576.293ZM1513.82 576.358C1514.87 576.358 1515.58 575.606 1515.58 574.404C1515.58 573.198 1514.87 572.45 1513.82 572.45C1512.77 572.45 1512.06 573.198 1512.06 574.404C1512.06 575.606 1512.77 576.358 1513.82 576.358ZM1513.82 575.803C1513.15 575.803 1512.71 575.294 1512.71 574.404C1512.71 573.514 1513.15 573.006 1513.82 573.006C1514.49 573.006 1514.93 573.514 1514.93 574.404C1514.93 575.294 1514.49 575.803 1513.82 575.803ZM1516.25 576.293H1516.89V572.515H1516.25V576.293ZM1516.57 571.843C1516.79 571.843 1516.97 571.666 1516.97 571.448C1516.97 571.226 1516.79 571.052 1516.57 571.052C1516.35 571.052 1516.17 571.226 1516.17 571.448C1516.17 571.666 1516.35 571.843 1516.57 571.843ZM1517.75 576.293H1518.38V574.07C1518.38 573.431 1518.77 573.009 1519.37 573.009C1519.95 573.009 1520.24 573.343 1520.24 573.954V576.293H1520.88V573.841C1520.88 572.984 1520.4 572.45 1519.56 572.45C1518.98 572.45 1518.57 572.712 1518.36 573.118H1518.34V572.515H1517.75V576.293ZM1523.16 573.558C1523.16 574.103 1523.5 574.433 1524.22 574.604L1524.82 574.749C1525.26 574.854 1525.4 575.011 1525.4 575.283C1525.4 575.624 1525.09 575.842 1524.57 575.842C1524.06 575.842 1523.76 575.635 1523.69 575.203H1523.05C1523.13 575.911 1523.68 576.358 1524.57 576.358C1525.42 576.358 1526.04 575.893 1526.04 575.236C1526.04 574.695 1525.77 574.397 1525 574.212L1524.4 574.066C1523.97 573.965 1523.78 573.787 1523.78 573.525C1523.78 573.195 1524.09 572.966 1524.55 572.966C1525.02 572.966 1525.31 573.209 1525.36 573.605H1525.96C1525.94 572.937 1525.38 572.45 1524.55 572.45C1523.73 572.45 1523.16 572.911 1523.16 573.558ZM1528.23 572.999C1528.83 572.999 1529.22 573.449 1529.24 574.081H1527.18C1527.22 573.452 1527.63 572.999 1528.23 572.999ZM1529.22 575.21C1529.12 575.566 1528.76 575.81 1528.28 575.81C1527.6 575.81 1527.17 575.334 1527.17 574.611V574.575H1529.9V574.335C1529.9 573.191 1529.26 572.45 1528.24 572.45C1527.19 572.45 1526.52 573.246 1526.52 574.419C1526.52 575.606 1527.18 576.358 1528.27 576.358C1529.1 576.358 1529.74 575.872 1529.85 575.21H1529.22ZM1531.97 576.358C1532.52 576.358 1532.96 576.089 1533.2 575.654H1533.21V576.293H1533.82V571.052H1533.18V573.129H1533.17C1532.94 572.715 1532.51 572.45 1531.96 572.45C1531.01 572.45 1530.35 573.22 1530.35 574.404C1530.35 575.588 1531.01 576.358 1531.97 576.358ZM1532.1 573.006C1532.75 573.006 1533.19 573.561 1533.19 574.404C1533.19 575.25 1532.75 575.803 1532.1 575.803C1531.42 575.803 1531 575.261 1531 574.404C1531 573.551 1531.42 573.006 1532.1 573.006ZM1378.35 587.748C1378.9 587.748 1379.33 587.478 1379.57 587.043H1379.59V587.683H1380.19V582.442H1379.56V584.519H1379.54C1379.31 584.105 1378.88 583.84 1378.33 583.84C1377.38 583.84 1376.72 584.61 1376.72 585.795C1376.72 586.978 1377.38 587.748 1378.35 587.748ZM1378.47 584.396C1379.12 584.396 1379.56 584.951 1379.56 585.795C1379.56 586.641 1379.12 587.192 1378.47 587.192C1377.8 587.192 1377.37 586.651 1377.37 585.795C1377.37 584.94 1377.8 584.396 1378.47 584.396ZM1381.08 587.683H1381.72V583.905H1381.08V587.683ZM1381.4 583.233C1381.62 583.233 1381.8 583.056 1381.8 582.837C1381.8 582.616 1381.62 582.442 1381.4 582.442C1381.18 582.442 1381 582.616 1381 582.837C1381 583.056 1381.18 583.233 1381.4 583.233ZM1383.83 587.211C1383.37 587.211 1383.07 586.974 1383.07 586.616C1383.07 586.26 1383.36 586.035 1383.87 586.002L1384.89 585.939V586.248C1384.89 586.792 1384.43 587.211 1383.83 587.211ZM1383.68 587.748C1384.2 587.748 1384.68 587.464 1384.9 587.032H1384.92V587.683H1385.52V585.071C1385.52 584.319 1384.96 583.84 1384.07 583.84C1383.17 583.84 1382.61 584.341 1382.56 584.995H1383.18C1383.26 584.625 1383.56 584.396 1384.05 584.396C1384.58 584.396 1384.89 584.672 1384.89 585.133V585.449L1383.8 585.512C1382.92 585.563 1382.42 585.967 1382.42 586.616C1382.42 587.294 1382.93 587.748 1383.68 587.748ZM1386.33 587.683H1386.96V585.314C1386.96 584.791 1387.33 584.399 1387.83 584.399C1388.3 584.399 1388.61 584.697 1388.61 585.151V587.683H1389.24V585.282C1389.24 584.77 1389.6 584.399 1390.1 584.399C1390.6 584.399 1390.89 584.704 1390.89 585.22V587.683H1391.53V585.075C1391.53 584.327 1391.04 583.84 1390.29 583.84C1389.76 583.84 1389.31 584.109 1389.1 584.559H1389.08C1388.92 584.102 1388.54 583.84 1388.02 583.84C1387.51 583.84 1387.12 584.109 1386.94 584.508H1386.93V583.905H1386.33V587.683ZM1396.99 583.905H1396.35V586.125C1396.35 586.767 1395.98 587.19 1395.36 587.19C1394.77 587.19 1394.49 586.857 1394.49 586.244V583.905H1393.85V586.358C1393.85 587.213 1394.34 587.748 1395.17 587.748C1395.75 587.748 1396.14 587.504 1396.37 587.069H1396.38V587.683H1396.99V583.905ZM1398.02 582.994V583.905H1397.45V584.425H1398.02V586.702C1398.02 587.429 1398.29 587.71 1398.98 587.71C1399.13 587.71 1399.31 587.701 1399.39 587.683V587.153C1399.34 587.16 1399.2 587.171 1399.12 587.171C1398.8 587.171 1398.65 587.013 1398.65 586.669V584.425H1399.39V583.905H1398.65V582.994H1398.02ZM1401.63 587.683H1402.27V583.905H1401.63V587.683ZM1401.95 583.233C1402.17 583.233 1402.35 583.056 1402.35 582.837C1402.35 582.616 1402.17 582.442 1401.95 582.442C1401.73 582.442 1401.55 582.616 1401.55 582.837C1401.55 583.056 1401.73 583.233 1401.95 583.233ZM1403.13 587.683H1403.76V585.46C1403.76 584.821 1404.15 584.399 1404.75 584.399C1405.34 584.399 1405.62 584.733 1405.62 585.344V587.683H1406.26V585.231C1406.26 584.374 1405.78 583.84 1404.95 583.84C1404.36 583.84 1403.95 584.102 1403.74 584.508H1403.73V583.905H1403.13V587.683ZM1408.6 587.683H1409.24V585.46C1409.24 584.821 1409.63 584.399 1410.23 584.399C1410.81 584.399 1411.1 584.733 1411.1 585.344V587.683H1411.74V585.231C1411.74 584.374 1411.25 583.84 1410.42 583.84C1409.83 583.84 1409.43 584.102 1409.22 584.508H1409.2V583.905H1408.6V587.683ZM1412.58 587.683H1413.21V583.905H1412.58V587.683ZM1412.9 583.233C1413.12 583.233 1413.29 583.056 1413.29 582.837C1413.29 582.616 1413.12 582.442 1412.9 582.442C1412.68 582.442 1412.5 582.616 1412.5 582.837C1412.5 583.056 1412.68 583.233 1412.9 583.233ZM1414.01 584.948C1414.01 585.493 1414.35 585.823 1415.07 585.993L1415.67 586.139C1416.1 586.244 1416.25 586.399 1416.25 586.674C1416.25 587.013 1415.94 587.232 1415.42 587.232C1414.91 587.232 1414.62 587.025 1414.54 586.592H1413.9C1413.98 587.301 1414.53 587.748 1415.42 587.748C1416.27 587.748 1416.89 587.283 1416.89 586.625C1416.89 586.083 1416.62 585.786 1415.85 585.602L1415.25 585.456C1414.82 585.354 1414.63 585.177 1414.63 584.915C1414.63 584.585 1414.94 584.356 1415.4 584.356C1415.87 584.356 1416.16 584.599 1416.21 584.995H1416.81C1416.79 584.327 1416.23 583.84 1415.4 583.84C1414.58 583.84 1414.01 584.301 1414.01 584.948ZM1417.59 587.683H1418.22V582.442H1417.59V587.683ZM1422.05 587.748C1422.6 587.748 1423.03 587.478 1423.28 587.043H1423.29V587.683H1423.89V582.442H1423.26V584.519H1423.25C1423.02 584.105 1422.58 583.84 1422.04 583.84C1421.08 583.84 1420.43 584.61 1420.43 585.795C1420.43 586.978 1421.08 587.748 1422.05 587.748ZM1422.17 584.396C1422.83 584.396 1423.26 584.951 1423.26 585.795C1423.26 586.641 1422.83 587.192 1422.17 587.192C1421.5 587.192 1421.08 586.651 1421.08 585.795C1421.08 584.94 1421.5 584.396 1422.17 584.396ZM1427.87 583.905H1427.24V586.125C1427.24 586.767 1426.86 587.19 1426.25 587.19C1425.66 587.19 1425.37 586.857 1425.37 586.244V583.905H1424.73V586.358C1424.73 587.213 1425.22 587.748 1426.05 587.748C1426.63 587.748 1427.03 587.504 1427.25 587.069H1427.27V587.683H1427.87V583.905ZM1428.73 587.683H1429.36V583.905H1428.73V587.683ZM1429.05 583.233C1429.27 583.233 1429.44 583.056 1429.44 582.837C1429.44 582.616 1429.27 582.442 1429.05 582.442C1428.83 582.442 1428.65 582.616 1428.65 582.837C1428.65 583.056 1428.83 583.233 1429.05 583.233ZM1430.76 587.72C1430.99 587.72 1431.17 587.538 1431.17 587.306C1431.17 587.074 1430.99 586.89 1430.76 586.89C1430.52 586.89 1430.34 587.074 1430.34 587.306C1430.34 587.538 1430.52 587.72 1430.76 587.72ZM1433.39 582.442V587.683H1434.04V585.811H1435.26C1436.25 585.811 1436.95 585.118 1436.95 584.123C1436.95 583.132 1436.26 582.442 1435.27 582.442H1433.39ZM1434.04 583.023H1435.09C1435.85 583.023 1436.28 583.43 1436.28 584.123C1436.28 584.821 1435.85 585.231 1435.09 585.231H1434.04V583.023ZM1440.73 583.905H1440.09V586.125C1440.09 586.767 1439.72 587.19 1439.1 587.19C1438.52 587.19 1438.23 586.857 1438.23 586.244V583.905H1437.59V586.358C1437.59 587.213 1438.08 587.748 1438.91 587.748C1439.49 587.748 1439.88 587.504 1440.11 587.069H1440.13V587.683H1440.73V583.905ZM1441.55 587.683H1442.19V585.329C1442.19 584.795 1442.51 584.443 1443 584.443C1443.15 584.443 1443.29 584.461 1443.34 584.479V583.865C1443.29 583.858 1443.2 583.84 1443.09 583.84C1442.64 583.84 1442.29 584.105 1442.17 584.523H1442.15V583.905H1441.55V587.683ZM1446.98 583.905H1446.34V586.125C1446.34 586.767 1445.97 587.19 1445.35 587.19C1444.76 587.19 1444.48 586.857 1444.48 586.244V583.905H1443.84V586.358C1443.84 587.213 1444.33 587.748 1445.16 587.748C1445.74 587.748 1446.13 587.504 1446.36 587.069H1446.37V587.683H1446.98V583.905ZM1447.74 584.948C1447.74 585.493 1448.08 585.823 1448.8 585.993L1449.4 586.139C1449.84 586.244 1449.99 586.399 1449.99 586.674C1449.99 587.013 1449.67 587.232 1449.15 587.232C1448.64 587.232 1448.35 587.025 1448.27 586.592H1447.63C1447.71 587.301 1448.26 587.748 1449.15 587.748C1450 587.748 1450.62 587.283 1450.62 586.625C1450.62 586.083 1450.35 585.786 1449.58 585.602L1448.98 585.456C1448.55 585.354 1448.36 585.177 1448.36 584.915C1448.36 584.585 1448.67 584.356 1449.13 584.356C1449.6 584.356 1449.89 584.599 1449.94 584.995H1450.54C1450.52 584.327 1449.96 583.84 1449.13 583.84C1448.31 583.84 1447.74 584.301 1447.74 584.948ZM1453.02 582.994V583.905H1452.46V584.425H1453.02V586.702C1453.02 587.429 1453.29 587.71 1453.99 587.71C1454.14 587.71 1454.31 587.701 1454.39 587.683V587.153C1454.35 587.16 1454.2 587.171 1454.13 587.171C1453.8 587.171 1453.66 587.013 1453.66 586.669V584.425H1454.4V583.905H1453.66V582.994H1453.02ZM1456.49 584.388C1457.09 584.388 1457.48 584.839 1457.5 585.47H1455.44C1455.48 584.842 1455.89 584.388 1456.49 584.388ZM1457.48 586.599C1457.38 586.957 1457.02 587.199 1456.54 587.199C1455.86 587.199 1455.43 586.725 1455.43 586.002V585.965H1458.16V585.725C1458.16 584.581 1457.52 583.84 1456.5 583.84C1455.45 583.84 1454.78 584.635 1454.78 585.809C1454.78 586.997 1455.44 587.748 1456.53 587.748C1457.36 587.748 1458 587.262 1458.11 586.599H1457.48ZM1458.83 587.683H1459.47V582.442H1458.83V587.683ZM1460.36 587.683H1460.99V582.442H1460.36V587.683ZM1464.97 583.905H1464.33V586.125C1464.33 586.767 1463.96 587.19 1463.34 587.19C1462.75 587.19 1462.47 586.857 1462.47 586.244V583.905H1461.83V586.358C1461.83 587.213 1462.32 587.748 1463.15 587.748C1463.73 587.748 1464.12 587.504 1464.35 587.069H1464.36V587.683H1464.97V583.905ZM1465.73 584.948C1465.73 585.493 1466.07 585.823 1466.79 585.993L1467.39 586.139C1467.83 586.244 1467.97 586.399 1467.97 586.674C1467.97 587.013 1467.66 587.232 1467.14 587.232C1466.63 587.232 1466.34 587.025 1466.26 586.592H1465.62C1465.7 587.301 1466.25 587.748 1467.14 587.748C1467.99 587.748 1468.61 587.283 1468.61 586.625C1468.61 586.083 1468.34 585.786 1467.57 585.602L1466.97 585.456C1466.54 585.354 1466.35 585.177 1466.35 584.915C1466.35 584.585 1466.66 584.356 1467.12 584.356C1467.59 584.356 1467.88 584.599 1467.93 584.995H1468.53C1468.51 584.327 1467.95 583.84 1467.12 583.84C1466.3 583.84 1465.73 584.301 1465.73 584.948ZM1473.92 583.905H1473.26L1472.21 587.011H1472.19L1471.15 583.905H1470.48L1471.88 587.683H1472.53L1473.92 583.905ZM1475.83 584.388C1476.43 584.388 1476.83 584.839 1476.85 585.47H1474.78C1474.82 584.842 1475.24 584.388 1475.83 584.388ZM1476.83 586.599C1476.73 586.957 1476.37 587.199 1475.89 587.199C1475.21 587.199 1474.78 586.725 1474.78 586.002V585.965H1477.5V585.725C1477.5 584.581 1476.87 583.84 1475.85 583.84C1474.8 583.84 1474.13 584.635 1474.13 585.809C1474.13 586.997 1474.79 587.748 1475.87 587.748C1476.7 587.748 1477.35 587.262 1477.46 586.599H1476.83ZM1478.08 584.948C1478.08 585.493 1478.43 585.823 1479.14 585.993L1479.74 586.139C1480.18 586.244 1480.33 586.399 1480.33 586.674C1480.33 587.013 1480.01 587.232 1479.5 587.232C1478.98 587.232 1478.69 587.025 1478.61 586.592H1477.98C1478.05 587.301 1478.61 587.748 1479.5 587.748C1480.34 587.748 1480.97 587.283 1480.97 586.625C1480.97 586.083 1480.69 585.786 1479.92 585.602L1479.32 585.456C1478.9 585.354 1478.7 585.177 1478.7 584.915C1478.7 584.585 1479.01 584.356 1479.47 584.356C1479.94 584.356 1480.23 584.599 1480.28 584.995H1480.89C1480.86 584.327 1480.31 583.84 1479.47 583.84C1478.65 583.84 1478.08 584.301 1478.08 584.948ZM1481.83 582.994V583.905H1481.27V584.425H1481.83V586.702C1481.83 587.429 1482.1 587.71 1482.8 587.71C1482.95 587.71 1483.12 587.701 1483.2 587.683V587.153C1483.16 587.16 1483.01 587.171 1482.94 587.171C1482.61 587.171 1482.47 587.013 1482.47 586.669V584.425H1483.2V583.905H1482.47V582.994H1481.83ZM1483.92 587.683H1484.55V583.905H1483.92V587.683ZM1484.23 583.233C1484.46 583.233 1484.63 583.056 1484.63 582.837C1484.63 582.616 1484.46 582.442 1484.23 582.442C1484.01 582.442 1483.84 582.616 1483.84 582.837C1483.84 583.056 1484.01 583.233 1484.23 583.233ZM1487.3 587.748C1488.27 587.748 1488.91 586.981 1488.91 585.795C1488.91 584.61 1488.26 583.84 1487.31 583.84C1486.77 583.84 1486.33 584.105 1486.09 584.537H1486.08V582.442H1485.44V587.683H1486.05V587.043H1486.06C1486.31 587.478 1486.74 587.748 1487.3 587.748ZM1487.17 584.396C1487.84 584.396 1488.26 584.937 1488.26 585.795C1488.26 586.658 1487.84 587.192 1487.17 587.192C1486.53 587.192 1486.08 586.637 1486.08 585.795C1486.08 584.955 1486.53 584.396 1487.17 584.396ZM1492.68 583.905H1492.04V586.125C1492.04 586.767 1491.67 587.19 1491.05 587.19C1490.46 587.19 1490.17 586.857 1490.17 586.244V583.905H1489.54V586.358C1489.54 587.213 1490.02 587.748 1490.85 587.748C1491.44 587.748 1491.83 587.504 1492.06 587.069H1492.07V587.683H1492.68V583.905ZM1493.53 587.683H1494.17V582.442H1493.53V587.683ZM1498.14 583.905H1497.51V586.125C1497.51 586.767 1497.14 587.19 1496.52 587.19C1495.93 587.19 1495.64 586.857 1495.64 586.244V583.905H1495.01V586.358C1495.01 587.213 1495.49 587.748 1496.32 587.748C1496.91 587.748 1497.3 587.504 1497.53 587.069H1497.54V587.683H1498.14V583.905ZM1498.97 587.683H1499.6V585.314C1499.6 584.791 1499.97 584.399 1500.47 584.399C1500.94 584.399 1501.25 584.697 1501.25 585.151V587.683H1501.89V585.282C1501.89 584.77 1502.24 584.399 1502.74 584.399C1503.24 584.399 1503.53 584.704 1503.53 585.22V587.683H1504.17V585.075C1504.17 584.327 1503.68 583.84 1502.93 583.84C1502.4 583.84 1501.95 584.109 1501.74 584.559H1501.72C1501.56 584.102 1501.18 583.84 1500.66 583.84C1500.15 583.84 1499.76 584.109 1499.58 584.508H1499.57V583.905H1498.97V587.683ZM1507.76 587.211C1507.31 587.211 1507 586.974 1507 586.616C1507 586.26 1507.29 586.035 1507.81 586.002L1508.82 585.939V586.248C1508.82 586.792 1508.36 587.211 1507.76 587.211ZM1507.62 587.748C1508.13 587.748 1508.61 587.464 1508.84 587.032H1508.85V587.683H1509.45V585.071C1509.45 584.319 1508.89 583.84 1508 583.84C1507.1 583.84 1506.54 584.341 1506.5 584.995H1507.11C1507.19 584.625 1507.5 584.396 1507.99 584.396C1508.51 584.396 1508.82 584.672 1508.82 585.133V585.449L1507.73 585.512C1506.86 585.563 1506.36 585.967 1506.36 586.616C1506.36 587.294 1506.86 587.748 1507.62 587.748ZM1510.47 582.994V583.905H1509.9V584.425H1510.47V586.702C1510.47 587.429 1510.74 587.71 1511.43 587.71C1511.58 587.71 1511.76 587.701 1511.84 587.683V587.153C1511.79 587.16 1511.65 587.171 1511.57 587.171C1511.25 587.171 1511.1 587.013 1511.1 586.669V584.425H1511.84V583.905H1511.1V582.994H1510.47ZM1515.57 584.388C1516.17 584.388 1516.57 584.839 1516.59 585.47H1514.52C1514.56 584.842 1514.98 584.388 1515.57 584.388ZM1516.57 586.599C1516.46 586.957 1516.11 587.199 1515.63 587.199C1514.95 587.199 1514.52 586.725 1514.52 586.002V585.965H1517.24V585.725C1517.24 584.581 1516.61 583.84 1515.59 583.84C1514.54 583.84 1513.87 584.635 1513.87 585.809C1513.87 586.997 1514.53 587.748 1515.61 587.748C1516.44 587.748 1517.09 587.262 1517.2 586.599H1516.57ZM1517.88 587.683H1518.52V585.329C1518.52 584.795 1518.84 584.443 1519.34 584.443C1519.49 584.443 1519.62 584.461 1519.67 584.479V583.865C1519.62 583.858 1519.53 583.84 1519.42 583.84C1518.97 583.84 1518.62 584.105 1518.5 584.523H1518.48V583.905H1517.88V587.683ZM1521.37 587.211C1520.91 587.211 1520.61 586.974 1520.61 586.616C1520.61 586.26 1520.9 586.035 1521.41 586.002L1522.43 585.939V586.248C1522.43 586.792 1521.97 587.211 1521.37 587.211ZM1521.23 587.748C1521.74 587.748 1522.22 587.464 1522.45 587.032H1522.46V587.683H1523.06V585.071C1523.06 584.319 1522.5 583.84 1521.61 583.84C1520.71 583.84 1520.15 584.341 1520.11 584.995H1520.72C1520.8 584.625 1521.11 584.396 1521.6 584.396C1522.12 584.396 1522.43 584.672 1522.43 585.133V585.449L1521.34 585.512C1520.47 585.563 1519.97 585.967 1519.97 586.616C1519.97 587.294 1520.47 587.748 1521.23 587.748ZM1524.08 582.994V583.905H1523.51V584.425H1524.08V586.702C1524.08 587.429 1524.35 587.71 1525.04 587.71C1525.19 587.71 1525.37 587.701 1525.44 587.683V587.153C1525.4 587.16 1525.26 587.171 1525.18 587.171C1524.86 587.171 1524.71 587.013 1524.71 586.669V584.425H1525.45V583.905H1524.71V582.994H1524.08ZM1530.78 583.905H1530.14V586.125C1530.14 586.767 1529.77 587.19 1529.15 587.19C1528.57 587.19 1528.28 586.857 1528.28 586.244V583.905H1527.64V586.358C1527.64 587.213 1528.13 587.748 1528.96 587.748C1529.54 587.748 1529.94 587.504 1530.16 587.069H1530.18V587.683H1530.78V583.905ZM1531.81 582.994V583.905H1531.24V584.425H1531.81V586.702C1531.81 587.429 1532.08 587.71 1532.78 587.71C1532.93 587.71 1533.1 587.701 1533.18 587.683V587.153C1533.13 587.16 1532.99 587.171 1532.91 587.171C1532.59 587.171 1532.44 587.013 1532.44 586.669V584.425H1533.18V583.905H1532.44V582.994H1531.81ZM1534.4 587.72C1534.63 587.72 1534.81 587.538 1534.81 587.306C1534.81 587.074 1534.63 586.89 1534.4 586.89C1534.16 586.89 1533.98 587.074 1533.98 587.306C1533.98 587.538 1534.16 587.72 1534.4 587.72ZM1377.66 599.072V596.801H1380V596.22H1377.66V594.419H1380.21V593.831H1377.01V599.072H1377.66ZM1382.24 595.779C1382.83 595.779 1383.23 596.23 1383.25 596.86H1381.18C1381.22 596.232 1381.64 595.779 1382.24 595.779ZM1383.23 597.989C1383.13 598.347 1382.77 598.589 1382.29 598.589C1381.61 598.589 1381.18 598.115 1381.18 597.392V597.355H1383.9V597.115C1383.9 595.972 1383.27 595.23 1382.25 595.23C1381.2 595.23 1380.53 596.025 1380.53 597.199C1380.53 598.387 1381.19 599.138 1382.28 599.138C1383.1 599.138 1383.75 598.652 1383.86 597.989H1383.23ZM1384.58 599.072H1385.21V593.831H1384.58V599.072ZM1386.1 599.072H1386.74V595.295H1386.1V599.072ZM1386.42 594.623C1386.65 594.623 1386.82 594.444 1386.82 594.228C1386.82 594.005 1386.65 593.831 1386.42 593.831C1386.2 593.831 1386.02 594.005 1386.02 594.228C1386.02 594.444 1386.2 594.623 1386.42 594.623ZM1387.53 596.337C1387.53 596.883 1387.88 597.213 1388.59 597.383L1389.2 597.529C1389.63 597.634 1389.78 597.789 1389.78 598.064C1389.78 598.403 1389.46 598.622 1388.95 598.622C1388.43 598.622 1388.14 598.415 1388.07 597.982H1387.43C1387.5 598.691 1388.06 599.138 1388.95 599.138C1389.8 599.138 1390.42 598.673 1390.42 598.015C1390.42 597.473 1390.14 597.176 1389.38 596.992L1388.77 596.846C1388.35 596.743 1388.16 596.567 1388.16 596.304C1388.16 595.974 1388.46 595.746 1388.93 595.746C1389.39 595.746 1389.69 595.988 1389.73 596.385H1390.34C1390.31 595.716 1389.76 595.23 1388.93 595.23C1388.11 595.23 1387.53 595.69 1387.53 596.337ZM1395.73 595.295H1395.1V597.515C1395.1 598.157 1394.72 598.58 1394.11 598.58C1393.52 598.58 1393.23 598.247 1393.23 597.634V595.295H1392.6V597.748C1392.6 598.603 1393.08 599.138 1393.91 599.138C1394.49 599.138 1394.89 598.893 1395.11 598.459H1395.13V599.072H1395.73V595.295ZM1396.76 594.384V595.295H1396.19V595.814H1396.76V598.092C1396.76 598.819 1397.03 599.1 1397.73 599.1C1397.88 599.1 1398.05 599.091 1398.13 599.072V598.542C1398.09 598.549 1397.94 598.561 1397.87 598.561C1397.54 598.561 1397.4 598.403 1397.4 598.059V595.814H1398.13V595.295H1397.4V594.384H1396.76ZM1401.87 595.779C1402.47 595.779 1402.86 596.23 1402.88 596.86H1400.82C1400.86 596.232 1401.27 595.779 1401.87 595.779ZM1402.86 597.989C1402.76 598.347 1402.4 598.589 1401.92 598.589C1401.24 598.589 1400.81 598.115 1400.81 597.392V597.355H1403.54V597.115C1403.54 595.972 1402.9 595.23 1401.88 595.23C1400.83 595.23 1400.16 596.025 1400.16 597.199C1400.16 598.387 1400.82 599.138 1401.91 599.138C1402.74 599.138 1403.38 598.652 1403.49 597.989H1402.86ZM1405.72 598.545C1405.07 598.545 1404.64 598.015 1404.64 597.169C1404.64 596.323 1405.07 595.786 1405.72 595.786C1406.38 595.786 1406.83 596.337 1406.83 597.169C1406.83 598.001 1406.38 598.545 1405.72 598.545ZM1405.74 600.495C1406.79 600.495 1407.46 599.898 1407.46 598.996V595.295H1406.85V595.93H1406.84C1406.59 595.49 1406.15 595.23 1405.61 595.23C1404.63 595.23 1403.99 595.986 1403.99 597.169C1403.99 598.343 1404.63 599.1 1405.59 599.1C1406.13 599.1 1406.58 598.833 1406.81 598.422H1406.83V599.019C1406.83 599.582 1406.43 599.958 1405.77 599.958C1405.3 599.958 1404.92 599.73 1404.8 599.384H1404.14C1404.25 600.028 1404.91 600.495 1405.74 600.495ZM1409.81 595.779C1410.41 595.779 1410.81 596.23 1410.82 596.86H1408.76C1408.8 596.232 1409.22 595.779 1409.81 595.779ZM1410.81 597.989C1410.7 598.347 1410.35 598.589 1409.87 598.589C1409.18 598.589 1408.76 598.115 1408.76 597.392V597.355H1411.48V597.115C1411.48 595.972 1410.85 595.23 1409.82 595.23C1408.77 595.23 1408.1 596.025 1408.1 597.199C1408.1 598.387 1408.76 599.138 1409.85 599.138C1410.68 599.138 1411.32 598.652 1411.43 597.989H1410.81ZM1412.06 596.337C1412.06 596.883 1412.4 597.213 1413.12 597.383L1413.72 597.529C1414.16 597.634 1414.31 597.789 1414.31 598.064C1414.31 598.403 1413.99 598.622 1413.47 598.622C1412.96 598.622 1412.67 598.415 1412.59 597.982H1411.95C1412.03 598.691 1412.58 599.138 1413.47 599.138C1414.32 599.138 1414.94 598.673 1414.94 598.015C1414.94 597.473 1414.67 597.176 1413.9 596.992L1413.3 596.846C1412.87 596.743 1412.68 596.567 1412.68 596.304C1412.68 595.974 1412.99 595.746 1413.45 595.746C1413.92 595.746 1414.21 595.988 1414.26 596.385H1414.86C1414.84 595.716 1414.28 595.23 1413.45 595.23C1412.63 595.23 1412.06 595.69 1412.06 596.337ZM1415.81 594.384V595.295H1415.24V595.814H1415.81V598.092C1415.81 598.819 1416.08 599.1 1416.78 599.1C1416.93 599.1 1417.1 599.091 1417.18 599.072V598.542C1417.13 598.549 1416.99 598.561 1416.92 598.561C1416.59 598.561 1416.44 598.403 1416.44 598.059V595.814H1417.18V595.295H1416.44V594.384H1415.81ZM1419.04 598.601C1418.58 598.601 1418.28 598.363 1418.28 598.006C1418.28 597.65 1418.57 597.424 1419.08 597.392L1420.1 597.329V597.638C1420.1 598.182 1419.64 598.601 1419.04 598.601ZM1418.9 599.138C1419.41 599.138 1419.89 598.854 1420.12 598.422H1420.13V599.072H1420.73V596.462C1420.73 595.709 1420.17 595.23 1419.28 595.23C1418.38 595.23 1417.82 595.73 1417.78 596.385H1418.39C1418.47 596.013 1418.78 595.786 1419.27 595.786C1419.79 595.786 1420.1 596.062 1420.1 596.523V596.839L1419.01 596.901C1418.13 596.953 1417.63 597.357 1417.63 598.006C1417.63 598.684 1418.14 599.138 1418.9 599.138ZM1421.47 596.337C1421.47 596.883 1421.82 597.213 1422.54 597.383L1423.14 597.529C1423.57 597.634 1423.72 597.789 1423.72 598.064C1423.72 598.403 1423.41 598.622 1422.89 598.622C1422.38 598.622 1422.08 598.415 1422.01 597.982H1421.37C1421.45 598.691 1422 599.138 1422.89 599.138C1423.74 599.138 1424.36 598.673 1424.36 598.015C1424.36 597.473 1424.08 597.176 1423.32 596.992L1422.72 596.846C1422.29 596.743 1422.1 596.567 1422.1 596.304C1422.1 595.974 1422.41 595.746 1422.87 595.746C1423.34 595.746 1423.63 595.988 1423.68 596.385H1424.28C1424.26 595.716 1423.7 595.23 1422.87 595.23C1422.05 595.23 1421.47 595.69 1421.47 596.337ZM1428.08 595.779C1428.68 595.779 1429.08 596.23 1429.09 596.86H1427.03C1427.07 596.232 1427.48 595.779 1428.08 595.779ZM1429.08 597.989C1428.97 598.347 1428.62 598.589 1428.13 598.589C1427.45 598.589 1427.02 598.115 1427.02 597.392V597.355H1429.75V597.115C1429.75 595.972 1429.12 595.23 1428.09 595.23C1427.04 595.23 1426.37 596.025 1426.37 597.199C1426.37 598.387 1427.03 599.138 1428.12 599.138C1428.95 599.138 1429.59 598.652 1429.7 597.989H1429.08ZM1433.51 595.295H1432.87V597.515C1432.87 598.157 1432.5 598.58 1431.88 598.58C1431.29 598.58 1431.01 598.247 1431.01 597.634V595.295H1430.37V597.748C1430.37 598.603 1430.86 599.138 1431.69 599.138C1432.27 599.138 1432.66 598.893 1432.89 598.459H1432.9V599.072H1433.51V595.295ZM1434.36 599.072H1435V595.295H1434.36V599.072ZM1434.68 594.623C1434.9 594.623 1435.08 594.444 1435.08 594.228C1435.08 594.005 1434.9 593.831 1434.68 593.831C1434.46 593.831 1434.28 594.005 1434.28 594.228C1434.28 594.444 1434.46 594.623 1434.68 594.623ZM1435.79 596.337C1435.79 596.883 1436.14 597.213 1436.85 597.383L1437.46 597.529C1437.89 597.634 1438.04 597.789 1438.04 598.064C1438.04 598.403 1437.72 598.622 1437.21 598.622C1436.69 598.622 1436.4 598.415 1436.32 597.982H1435.69C1435.76 598.691 1436.32 599.138 1437.21 599.138C1438.06 599.138 1438.68 598.673 1438.68 598.015C1438.68 597.473 1438.4 597.176 1437.64 596.992L1437.03 596.846C1436.61 596.743 1436.42 596.567 1436.42 596.304C1436.42 595.974 1436.72 595.746 1437.19 595.746C1437.65 595.746 1437.95 595.988 1437.99 596.385H1438.6C1438.57 595.716 1438.02 595.23 1437.19 595.23C1436.37 595.23 1435.79 595.69 1435.79 596.337ZM1439.34 599.072H1439.98V596.704C1439.98 596.181 1440.34 595.79 1440.84 595.79C1441.32 595.79 1441.62 596.088 1441.62 596.541V599.072H1442.26V596.671C1442.26 596.16 1442.61 595.79 1443.11 595.79C1443.61 595.79 1443.9 596.095 1443.9 596.611V599.072H1444.54V596.464C1444.54 595.716 1444.05 595.23 1443.3 595.23C1442.77 595.23 1442.32 595.497 1442.11 595.948H1442.1C1441.93 595.49 1441.55 595.23 1441.03 595.23C1440.52 595.23 1440.13 595.497 1439.95 595.897H1439.94V595.295H1439.34V599.072ZM1446.92 599.138C1447.97 599.138 1448.68 598.387 1448.68 597.185C1448.68 595.979 1447.97 595.23 1446.92 595.23C1445.87 595.23 1445.16 595.979 1445.16 597.185C1445.16 598.387 1445.87 599.138 1446.92 599.138ZM1446.92 598.582C1446.25 598.582 1445.81 598.073 1445.81 597.185C1445.81 596.295 1446.25 595.786 1446.92 595.786C1447.59 595.786 1448.03 596.295 1448.03 597.185C1448.03 598.073 1447.59 598.582 1446.92 598.582ZM1450.76 599.138C1451.31 599.138 1451.74 598.868 1451.99 598.433H1452V599.072H1452.6V593.831H1451.97V595.909H1451.95C1451.73 595.495 1451.29 595.23 1450.74 595.23C1449.79 595.23 1449.13 596 1449.13 597.185C1449.13 598.368 1449.79 599.138 1450.76 599.138ZM1450.88 595.786C1451.53 595.786 1451.97 596.341 1451.97 597.185C1451.97 598.031 1451.53 598.582 1450.88 598.582C1450.21 598.582 1449.78 598.04 1449.78 597.185C1449.78 596.33 1450.21 595.786 1450.88 595.786ZM1454.93 596.337C1454.93 596.883 1455.27 597.213 1455.99 597.383L1456.59 597.529C1457.03 597.634 1457.18 597.789 1457.18 598.064C1457.18 598.403 1456.86 598.622 1456.34 598.622C1455.83 598.622 1455.54 598.415 1455.46 597.982H1454.83C1454.9 598.691 1455.45 599.138 1456.34 599.138C1457.19 599.138 1457.82 598.673 1457.82 598.015C1457.82 597.473 1457.54 597.176 1456.77 596.992L1456.17 596.846C1455.75 596.743 1455.55 596.567 1455.55 596.304C1455.55 595.974 1455.86 595.746 1456.32 595.746C1456.79 595.746 1457.08 595.988 1457.13 596.385H1457.74C1457.71 595.716 1457.15 595.23 1456.32 595.23C1455.5 595.23 1454.93 595.69 1454.93 596.337ZM1460 595.779C1460.6 595.779 1461 596.23 1461.01 596.86H1458.95C1458.99 596.232 1459.4 595.779 1460 595.779ZM1461 597.989C1460.89 598.347 1460.54 598.589 1460.05 598.589C1459.37 598.589 1458.94 598.115 1458.94 597.392V597.355H1461.67V597.115C1461.67 595.972 1461.04 595.23 1460.01 595.23C1458.96 595.23 1458.29 596.025 1458.29 597.199C1458.29 598.387 1458.95 599.138 1460.04 599.138C1460.87 599.138 1461.51 598.652 1461.62 597.989H1461ZM1463.75 599.138C1464.3 599.138 1464.73 598.868 1464.97 598.433H1464.99V599.072H1465.59V593.831H1464.96V595.909H1464.94C1464.72 595.495 1464.28 595.23 1463.73 595.23C1462.78 595.23 1462.12 596 1462.12 597.185C1462.12 598.368 1462.78 599.138 1463.75 599.138ZM1463.87 595.786C1464.52 595.786 1464.96 596.341 1464.96 597.185C1464.96 598.031 1464.52 598.582 1463.87 598.582C1463.2 598.582 1462.77 598.04 1462.77 597.185C1462.77 596.33 1463.2 595.786 1463.87 595.786ZM1469.42 599.138C1469.97 599.138 1470.4 598.868 1470.65 598.433H1470.66V599.072H1471.26V593.831H1470.63V595.909H1470.61C1470.39 595.495 1469.95 595.23 1469.41 595.23C1468.45 595.23 1467.8 596 1467.8 597.185C1467.8 598.368 1468.45 599.138 1469.42 599.138ZM1469.54 595.786C1470.19 595.786 1470.63 596.341 1470.63 597.185C1470.63 598.031 1470.19 598.582 1469.54 598.582C1468.87 598.582 1468.45 598.04 1468.45 597.185C1468.45 596.33 1468.87 595.786 1469.54 595.786ZM1475.24 595.295H1474.6V597.515C1474.6 598.157 1474.23 598.58 1473.62 598.58C1473.03 598.58 1472.74 598.247 1472.74 597.634V595.295H1472.1V597.748C1472.1 598.603 1472.59 599.138 1473.42 599.138C1474 599.138 1474.4 598.893 1474.62 598.459H1474.64V599.072H1475.24V595.295ZM1476.1 599.072H1476.73V595.295H1476.1V599.072ZM1476.41 594.623C1476.64 594.623 1476.81 594.444 1476.81 594.228C1476.81 594.005 1476.64 593.831 1476.41 593.831C1476.2 593.831 1476.02 594.005 1476.02 594.228C1476.02 594.444 1476.2 594.623 1476.41 594.623ZM1480.7 599.138C1481.74 599.138 1482.45 598.387 1482.45 597.185C1482.45 595.979 1481.74 595.23 1480.7 595.23C1479.65 595.23 1478.94 595.979 1478.94 597.185C1478.94 598.387 1479.65 599.138 1480.7 599.138ZM1480.7 598.582C1480.03 598.582 1479.58 598.073 1479.58 597.185C1479.58 596.295 1480.03 595.786 1480.7 595.786C1481.37 595.786 1481.81 596.295 1481.81 597.185C1481.81 598.073 1481.37 598.582 1480.7 598.582ZM1483.1 599.072H1483.73V596.72C1483.73 596.185 1484.05 595.832 1484.54 595.832C1484.7 595.832 1484.83 595.851 1484.88 595.869V595.256C1484.83 595.249 1484.74 595.23 1484.63 595.23C1484.18 595.23 1483.83 595.495 1483.71 595.914H1483.69V595.295H1483.1V599.072ZM1488.37 596.534C1488.29 595.855 1487.73 595.23 1486.78 595.23C1485.73 595.23 1485.03 595.993 1485.03 597.185C1485.03 598.401 1485.73 599.138 1486.79 599.138C1487.65 599.138 1488.28 598.608 1488.38 597.857H1487.76C1487.65 598.31 1487.31 598.582 1486.79 598.582C1486.13 598.582 1485.68 598.064 1485.68 597.185C1485.68 596.327 1486.12 595.786 1486.78 595.786C1487.34 595.786 1487.66 596.123 1487.75 596.534H1488.37ZM1489 599.072H1489.63V595.295H1489V599.072ZM1489.32 594.623C1489.54 594.623 1489.71 594.444 1489.71 594.228C1489.71 594.005 1489.54 593.831 1489.32 593.831C1489.1 593.831 1488.92 594.005 1488.92 594.228C1488.92 594.444 1489.1 594.623 1489.32 594.623ZM1491.03 599.11C1491.26 599.11 1491.44 598.928 1491.44 598.696C1491.44 598.463 1491.26 598.28 1491.03 598.28C1490.79 598.28 1490.61 598.463 1490.61 598.696C1490.61 598.928 1490.79 599.11 1491.03 599.11ZM1494.31 599.072V593.831H1493.66V599.072H1494.31ZM1495.24 599.072H1495.87V596.704C1495.87 596.181 1496.24 595.79 1496.74 595.79C1497.21 595.79 1497.52 596.088 1497.52 596.541V599.072H1498.15V596.671C1498.15 596.16 1498.51 595.79 1499.01 595.79C1499.51 595.79 1499.8 596.095 1499.8 596.611V599.072H1500.43V596.464C1500.43 595.716 1499.95 595.23 1499.2 595.23C1498.67 595.23 1498.22 595.497 1498.01 595.948H1497.99C1497.83 595.49 1497.45 595.23 1496.93 595.23C1496.42 595.23 1496.03 595.497 1495.85 595.897H1495.84V595.295H1495.24V599.072ZM1503.09 595.23C1502.54 595.23 1502.1 595.509 1501.86 595.934H1501.85V595.295H1501.24V600.332H1501.88V598.459H1501.89C1502.12 598.873 1502.56 599.138 1503.1 599.138C1504.06 599.138 1504.71 598.368 1504.71 597.185C1504.71 596 1504.06 595.23 1503.09 595.23ZM1502.96 598.582C1502.32 598.582 1501.88 598.026 1501.88 597.185C1501.88 596.346 1502.32 595.786 1502.96 595.786C1503.64 595.786 1504.06 596.33 1504.06 597.185C1504.06 598.04 1503.64 598.582 1502.96 598.582ZM1506.88 595.779C1507.48 595.779 1507.88 596.23 1507.89 596.86H1505.83C1505.87 596.232 1506.28 595.779 1506.88 595.779ZM1507.88 597.989C1507.77 598.347 1507.42 598.589 1506.93 598.589C1506.25 598.589 1505.82 598.115 1505.82 597.392V597.355H1508.55V597.115C1508.55 595.972 1507.92 595.23 1506.89 595.23C1505.84 595.23 1505.17 596.025 1505.17 597.199C1505.17 598.387 1505.83 599.138 1506.92 599.138C1507.75 599.138 1508.39 598.652 1508.5 597.989H1507.88ZM1509.19 599.072H1509.82V596.72C1509.82 596.185 1510.15 595.832 1510.64 595.832C1510.79 595.832 1510.93 595.851 1510.98 595.869V595.256C1510.93 595.249 1510.83 595.23 1510.72 595.23C1510.28 595.23 1509.93 595.495 1509.8 595.914H1509.79V595.295H1509.19V599.072ZM1512.75 599.138C1513.3 599.138 1513.73 598.868 1513.98 598.433H1513.99V599.072H1514.59V593.831H1513.96V595.909H1513.95C1513.72 595.495 1513.28 595.23 1512.74 595.23C1511.78 595.23 1511.13 596 1511.13 597.185C1511.13 598.368 1511.78 599.138 1512.75 599.138ZM1512.87 595.786C1513.53 595.786 1513.96 596.341 1513.96 597.185C1513.96 598.031 1513.53 598.582 1512.87 598.582C1512.2 598.582 1511.78 598.04 1511.78 597.185C1511.78 596.33 1512.2 595.786 1512.87 595.786ZM1515.49 599.072H1516.12V595.295H1515.49V599.072ZM1515.8 594.623C1516.03 594.623 1516.2 594.444 1516.2 594.228C1516.2 594.005 1516.03 593.831 1515.8 593.831C1515.59 593.831 1515.41 594.005 1515.41 594.228C1515.41 594.444 1515.59 594.623 1515.8 594.623ZM1518.5 595.779C1519.1 595.779 1519.5 596.23 1519.51 596.86H1517.45C1517.49 596.232 1517.91 595.779 1518.5 595.779ZM1519.5 597.989C1519.39 598.347 1519.04 598.589 1518.56 598.589C1517.87 598.589 1517.45 598.115 1517.45 597.392V597.355H1520.17V597.115C1520.17 595.972 1519.54 595.23 1518.51 595.23C1517.47 595.23 1516.79 596.025 1516.79 597.199C1516.79 598.387 1517.45 599.138 1518.54 599.138C1519.37 599.138 1520.01 598.652 1520.12 597.989H1519.5ZM1521.02 594.384V595.295H1520.45V595.814H1521.02V598.092C1521.02 598.819 1521.29 599.1 1521.98 599.1C1522.13 599.1 1522.31 599.091 1522.39 599.072V598.542C1522.34 598.549 1522.19 598.561 1522.12 598.561C1521.8 598.561 1521.65 598.403 1521.65 598.059V595.814H1522.39V595.295H1521.65V594.384H1521.02ZM1377.11 605.774V606.685H1376.55V607.203H1377.11V609.481C1377.11 610.209 1377.38 610.49 1378.08 610.49C1378.23 610.49 1378.41 610.481 1378.48 610.462V609.932C1378.44 609.939 1378.29 609.951 1378.22 609.951C1377.89 609.951 1377.75 609.793 1377.75 609.449V607.203H1378.49V606.685H1377.75V605.774H1377.11ZM1380.63 610.527C1381.68 610.527 1382.38 609.777 1382.38 608.575C1382.38 607.368 1381.68 606.62 1380.63 606.62C1379.58 606.62 1378.87 607.368 1378.87 608.575C1378.87 609.777 1379.58 610.527 1380.63 610.527ZM1380.63 609.972C1379.96 609.972 1379.52 609.463 1379.52 608.575C1379.52 607.685 1379.96 607.176 1380.63 607.176C1381.3 607.176 1381.74 607.685 1381.74 608.575C1381.74 609.463 1381.3 609.972 1380.63 609.972ZM1383.03 610.462H1383.66V608.11C1383.66 607.575 1383.98 607.222 1384.48 607.222C1384.63 607.222 1384.77 607.241 1384.82 607.259V606.646C1384.77 606.639 1384.67 606.62 1384.56 606.62C1384.12 606.62 1383.76 606.885 1383.64 607.303H1383.63V606.685H1383.03V610.462ZM1385.54 605.774V606.685H1384.97V607.203H1385.54V609.481C1385.54 610.209 1385.81 610.49 1386.51 610.49C1386.66 610.49 1386.83 610.481 1386.91 610.462V609.932C1386.86 609.939 1386.72 609.951 1386.65 609.951C1386.32 609.951 1386.17 609.793 1386.17 609.449V607.203H1386.91V606.685H1386.17V605.774H1385.54ZM1389.05 610.527C1390.1 610.527 1390.81 609.777 1390.81 608.575C1390.81 607.368 1390.1 606.62 1389.05 606.62C1388 606.62 1387.29 607.368 1387.29 608.575C1387.29 609.777 1388 610.527 1389.05 610.527ZM1389.05 609.972C1388.38 609.972 1387.94 609.463 1387.94 608.575C1387.94 607.685 1388.38 607.176 1389.05 607.176C1389.73 607.176 1390.16 607.685 1390.16 608.575C1390.16 609.463 1389.73 609.972 1389.05 609.972ZM1391.45 610.462H1392.09V608.11C1392.09 607.575 1392.41 607.222 1392.9 607.222C1393.06 607.222 1393.19 607.241 1393.24 607.259V606.646C1393.19 606.639 1393.1 606.62 1392.99 606.62C1392.54 606.62 1392.19 606.885 1392.07 607.303H1392.05V606.685H1391.45V610.462ZM1395.23 607.726C1395.23 608.273 1395.57 608.603 1396.29 608.772L1396.89 608.919C1397.33 609.023 1397.48 609.179 1397.48 609.453C1397.48 609.793 1397.16 610.011 1396.64 610.011C1396.13 610.011 1395.84 609.804 1395.76 609.372H1395.13C1395.2 610.081 1395.75 610.527 1396.64 610.527C1397.49 610.527 1398.11 610.062 1398.11 609.405C1398.11 608.863 1397.84 608.566 1397.07 608.382L1396.47 608.235C1396.05 608.133 1395.85 607.957 1395.85 607.694C1395.85 607.364 1396.16 607.136 1396.62 607.136C1397.09 607.136 1397.38 607.378 1397.43 607.775H1398.03C1398.01 607.106 1397.45 606.62 1396.62 606.62C1395.8 606.62 1395.23 607.08 1395.23 607.726ZM1400.35 610.527C1401.4 610.527 1402.1 609.777 1402.1 608.575C1402.1 607.368 1401.4 606.62 1400.35 606.62C1399.3 606.62 1398.59 607.368 1398.59 608.575C1398.59 609.777 1399.3 610.527 1400.35 610.527ZM1400.35 609.972C1399.68 609.972 1399.24 609.463 1399.24 608.575C1399.24 607.685 1399.68 607.176 1400.35 607.176C1401.02 607.176 1401.46 607.685 1401.46 608.575C1401.46 609.463 1401.02 609.972 1400.35 609.972ZM1402.78 610.462H1403.42V605.221H1402.78V610.462ZM1404.31 610.462H1404.94V605.221H1404.31V610.462ZM1405.83 610.462H1406.47V606.685H1405.83V610.462ZM1406.15 606.013C1406.37 606.013 1406.55 605.834 1406.55 605.618C1406.55 605.395 1406.37 605.221 1406.15 605.221C1405.93 605.221 1405.75 605.395 1405.75 605.618C1405.75 605.834 1405.93 606.013 1406.15 606.013ZM1410.48 607.924C1410.4 607.245 1409.83 606.62 1408.88 606.62C1407.84 606.62 1407.14 607.382 1407.14 608.575C1407.14 609.791 1407.84 610.527 1408.89 610.527C1409.75 610.527 1410.39 609.997 1410.49 609.247H1409.86C1409.75 609.7 1409.41 609.972 1408.9 609.972C1408.24 609.972 1407.79 609.453 1407.79 608.575C1407.79 607.717 1408.23 607.176 1408.89 607.176C1409.45 607.176 1409.77 607.513 1409.86 607.924H1410.48ZM1411.1 610.462H1411.74V606.685H1411.1V610.462ZM1411.42 606.013C1411.64 606.013 1411.82 605.834 1411.82 605.618C1411.82 605.395 1411.64 605.221 1411.42 605.221C1411.2 605.221 1411.02 605.395 1411.02 605.618C1411.02 605.834 1411.2 606.013 1411.42 606.013ZM1412.8 605.774V606.685H1412.24V607.203H1412.8V609.481C1412.8 610.209 1413.07 610.49 1413.77 610.49C1413.92 610.49 1414.09 610.481 1414.17 610.462V609.932C1414.13 609.939 1413.98 609.951 1413.91 609.951C1413.58 609.951 1413.44 609.793 1413.44 609.449V607.203H1414.17V606.685H1413.44V605.774H1412.8ZM1417.97 606.685H1417.34V608.905C1417.34 609.546 1416.96 609.97 1416.35 609.97C1415.76 609.97 1415.47 609.637 1415.47 609.023V606.685H1414.83V609.137C1414.83 609.993 1415.32 610.527 1416.15 610.527C1416.73 610.527 1417.13 610.283 1417.35 609.849H1417.37V610.462H1417.97V606.685ZM1420.23 610.527C1420.78 610.527 1421.22 610.258 1421.46 609.823H1421.47V610.462H1422.08V605.221H1421.44V607.299H1421.43C1421.2 606.885 1420.76 606.62 1420.22 606.62C1419.26 606.62 1418.61 607.389 1418.61 608.575C1418.61 609.758 1419.27 610.527 1420.23 610.527ZM1420.35 607.176C1421.01 607.176 1421.45 607.731 1421.45 608.575C1421.45 609.421 1421.01 609.972 1420.35 609.972C1419.68 609.972 1419.26 609.43 1419.26 608.575C1419.26 607.719 1419.68 607.176 1420.35 607.176ZM1422.97 610.462H1423.6V606.685H1422.97V610.462ZM1423.29 606.013C1423.51 606.013 1423.68 605.834 1423.68 605.618C1423.68 605.395 1423.51 605.221 1423.29 605.221C1423.07 605.221 1422.89 605.395 1422.89 605.618C1422.89 605.834 1423.07 606.013 1423.29 606.013ZM1424.46 610.462H1425.1V608.24C1425.1 607.601 1425.49 607.18 1426.09 607.18C1426.67 607.18 1426.96 607.513 1426.96 608.124V610.462H1427.59V608.01C1427.59 607.155 1427.11 606.62 1426.28 606.62C1425.69 606.62 1425.29 606.88 1425.07 607.287H1425.06V606.685H1424.46V610.462ZM1429.94 610.462H1430.57V608.094C1430.57 607.571 1430.94 607.18 1431.44 607.18C1431.91 607.18 1432.22 607.478 1432.22 607.931V610.462H1432.85V608.061C1432.85 607.55 1433.21 607.18 1433.71 607.18C1434.21 607.18 1434.5 607.485 1434.5 608.001V610.462H1435.13V607.854C1435.13 607.106 1434.65 606.62 1433.9 606.62C1433.36 606.62 1432.92 606.887 1432.71 607.338H1432.69C1432.53 606.88 1432.15 606.62 1431.63 606.62C1431.12 606.62 1430.73 606.887 1430.55 607.287H1430.54V606.685H1429.94V610.462ZM1437.52 610.527C1438.57 610.527 1439.27 609.777 1439.27 608.575C1439.27 607.368 1438.57 606.62 1437.52 606.62C1436.47 606.62 1435.76 607.368 1435.76 608.575C1435.76 609.777 1436.47 610.527 1437.52 610.527ZM1437.52 609.972C1436.85 609.972 1436.41 609.463 1436.41 608.575C1436.41 607.685 1436.85 607.176 1437.52 607.176C1438.19 607.176 1438.63 607.685 1438.63 608.575C1438.63 609.463 1438.19 609.972 1437.52 609.972ZM1439.95 610.462H1440.58V605.221H1439.95V610.462ZM1442.97 607.169C1443.56 607.169 1443.96 607.619 1443.98 608.249H1441.91C1441.95 607.622 1442.37 607.169 1442.97 607.169ZM1443.96 609.379C1443.86 609.737 1443.5 609.979 1443.02 609.979C1442.34 609.979 1441.91 609.505 1441.91 608.782V608.745H1444.63V608.505C1444.63 607.361 1444 606.62 1442.98 606.62C1441.93 606.62 1441.26 607.415 1441.26 608.589C1441.26 609.777 1441.92 610.527 1443.01 610.527C1443.83 610.527 1444.48 610.042 1444.59 609.379H1443.96ZM1445.21 607.726C1445.21 608.273 1445.56 608.603 1446.27 608.772L1446.87 608.919C1447.31 609.023 1447.46 609.179 1447.46 609.453C1447.46 609.793 1447.14 610.011 1446.63 610.011C1446.11 610.011 1445.82 609.804 1445.74 609.372H1445.11C1445.18 610.081 1445.74 610.527 1446.63 610.527C1447.47 610.527 1448.1 610.062 1448.1 609.405C1448.1 608.863 1447.82 608.566 1447.05 608.382L1446.45 608.235C1446.03 608.133 1445.83 607.957 1445.83 607.694C1445.83 607.364 1446.14 607.136 1446.6 607.136C1447.07 607.136 1447.36 607.378 1447.41 607.775H1448.02C1447.99 607.106 1447.44 606.62 1446.6 606.62C1445.78 606.62 1445.21 607.08 1445.21 607.726ZM1448.96 605.774V606.685H1448.4V607.203H1448.96V609.481C1448.96 610.209 1449.23 610.49 1449.93 610.49C1450.08 610.49 1450.26 610.481 1450.33 610.462V609.932C1450.29 609.939 1450.14 609.951 1450.07 609.951C1449.74 609.951 1449.6 609.793 1449.6 609.449V607.203H1450.34V606.685H1449.6V605.774H1448.96ZM1451.05 610.462H1451.68V606.685H1451.05V610.462ZM1451.37 606.013C1451.59 606.013 1451.76 605.834 1451.76 605.618C1451.76 605.395 1451.59 605.221 1451.37 605.221C1451.15 605.221 1450.97 605.395 1450.97 605.618C1450.97 605.834 1451.15 606.013 1451.37 606.013ZM1454.06 607.169C1454.66 607.169 1455.06 607.619 1455.07 608.249H1453.01C1453.05 607.622 1453.47 607.169 1454.06 607.169ZM1455.06 609.379C1454.95 609.737 1454.6 609.979 1454.12 609.979C1453.43 609.979 1453.01 609.505 1453.01 608.782V608.745H1455.73V608.505C1455.73 607.361 1455.1 606.62 1454.07 606.62C1453.03 606.62 1452.35 607.415 1452.35 608.589C1452.35 609.777 1453.02 610.527 1454.1 610.527C1454.93 610.527 1455.57 610.042 1455.68 609.379H1455.06ZM1457.84 607.726C1457.84 608.273 1458.19 608.603 1458.9 608.772L1459.51 608.919C1459.94 609.023 1460.09 609.179 1460.09 609.453C1460.09 609.793 1459.77 610.011 1459.26 610.011C1458.74 610.011 1458.45 609.804 1458.37 609.372H1457.74C1457.81 610.081 1458.37 610.527 1459.26 610.527C1460.1 610.527 1460.73 610.062 1460.73 609.405C1460.73 608.863 1460.45 608.566 1459.68 608.382L1459.08 608.235C1458.66 608.133 1458.47 607.957 1458.47 607.694C1458.47 607.364 1458.77 607.136 1459.24 607.136C1459.7 607.136 1459.99 607.378 1460.04 607.775H1460.65C1460.62 607.106 1460.07 606.62 1459.24 606.62C1458.41 606.62 1457.84 607.08 1457.84 607.726ZM1462.64 609.99C1462.19 609.99 1461.88 609.753 1461.88 609.395C1461.88 609.04 1462.17 608.814 1462.69 608.782L1463.7 608.719V609.028C1463.7 609.572 1463.24 609.99 1462.64 609.99ZM1462.5 610.527C1463.01 610.527 1463.49 610.244 1463.72 609.811H1463.73V610.462H1464.34V607.852C1464.34 607.099 1463.77 606.62 1462.88 606.62C1461.98 606.62 1461.42 607.12 1461.38 607.775H1461.99C1462.07 607.403 1462.38 607.176 1462.87 607.176C1463.39 607.176 1463.7 607.452 1463.7 607.912V608.228L1462.61 608.291C1461.74 608.342 1461.24 608.747 1461.24 609.395C1461.24 610.074 1461.74 610.527 1462.5 610.527ZM1466.99 606.62C1466.43 606.62 1465.99 606.899 1465.76 607.324H1465.74V606.685H1465.14V611.722H1465.78V609.849H1465.79C1466.02 610.262 1466.46 610.527 1467 610.527C1467.96 610.527 1468.61 609.758 1468.61 608.575C1468.61 607.389 1467.95 606.62 1466.99 606.62ZM1466.86 609.972C1466.21 609.972 1465.77 609.416 1465.77 608.575C1465.77 607.736 1466.21 607.176 1466.86 607.176C1467.54 607.176 1467.96 607.719 1467.96 608.575C1467.96 609.43 1467.54 609.972 1466.86 609.972ZM1469.29 610.462H1469.92V606.685H1469.29V610.462ZM1469.6 606.013C1469.83 606.013 1470 605.834 1470 605.618C1470 605.395 1469.83 605.221 1469.6 605.221C1469.38 605.221 1469.21 605.395 1469.21 605.618C1469.21 605.834 1469.38 606.013 1469.6 606.013ZM1472.3 607.169C1472.9 607.169 1473.3 607.619 1473.31 608.249H1471.25C1471.29 607.622 1471.71 607.169 1472.3 607.169ZM1473.3 609.379C1473.19 609.737 1472.84 609.979 1472.36 609.979C1471.67 609.979 1471.25 609.505 1471.25 608.782V608.745H1473.97V608.505C1473.97 607.361 1473.34 606.62 1472.31 606.62C1471.26 606.62 1470.59 607.415 1470.59 608.589C1470.59 609.777 1471.25 610.527 1472.34 610.527C1473.17 610.527 1473.81 610.042 1473.92 609.379H1473.3ZM1474.61 610.462H1475.25V608.24C1475.25 607.601 1475.64 607.18 1476.24 607.18C1476.82 607.18 1477.11 607.513 1477.11 608.124V610.462H1477.74V608.01C1477.74 607.155 1477.26 606.62 1476.43 606.62C1475.84 606.62 1475.44 606.88 1475.22 607.287H1475.21V606.685H1474.61V610.462ZM1478.99 611.504L1479.49 609.656H1478.81L1478.46 611.504H1478.99ZM1483.46 606.62C1482.91 606.62 1482.47 606.899 1482.24 607.324H1482.22V606.685H1481.62V611.722H1482.26V609.849H1482.27C1482.5 610.262 1482.94 610.527 1483.48 610.527C1484.44 610.527 1485.09 609.758 1485.09 608.575C1485.09 607.389 1484.43 606.62 1483.46 606.62ZM1483.34 609.972C1482.69 609.972 1482.25 609.416 1482.25 608.575C1482.25 607.736 1482.69 607.176 1483.34 607.176C1484.01 607.176 1484.44 607.719 1484.44 608.575C1484.44 609.43 1484.01 609.972 1483.34 609.972ZM1485.73 610.462H1486.37V608.11C1486.37 607.575 1486.69 607.222 1487.18 607.222C1487.33 607.222 1487.47 607.241 1487.52 607.259V606.646C1487.47 606.639 1487.37 606.62 1487.26 606.62C1486.82 606.62 1486.47 606.885 1486.34 607.303H1486.33V606.685H1485.73V610.462ZM1489.38 607.169C1489.98 607.169 1490.37 607.619 1490.39 608.249H1488.33C1488.37 607.622 1488.78 607.169 1489.38 607.169ZM1490.37 609.379C1490.27 609.737 1489.91 609.979 1489.43 609.979C1488.75 609.979 1488.32 609.505 1488.32 608.782V608.745H1491.05V608.505C1491.05 607.361 1490.41 606.62 1489.39 606.62C1488.34 606.62 1487.67 607.415 1487.67 608.589C1487.67 609.777 1488.33 610.527 1489.42 610.527C1490.25 610.527 1490.89 610.042 1491 609.379H1490.37ZM1491.89 605.774V606.685H1491.33V607.203H1491.89V609.481C1491.89 610.209 1492.16 610.49 1492.86 610.49C1493.01 610.49 1493.18 610.481 1493.26 610.462V609.932C1493.22 609.939 1493.07 609.951 1493 609.951C1492.68 609.951 1492.53 609.793 1492.53 609.449V607.203H1493.27V606.685H1492.53V605.774H1491.89ZM1493.98 610.462H1494.61V606.685H1493.98V610.462ZM1494.29 606.013C1494.52 606.013 1494.69 605.834 1494.69 605.618C1494.69 605.395 1494.52 605.221 1494.29 605.221C1494.08 605.221 1493.9 605.395 1493.9 605.618C1493.9 605.834 1494.08 606.013 1494.29 606.013ZM1498.59 606.685H1497.95V608.905C1497.95 609.546 1497.58 609.97 1496.96 609.97C1496.38 609.97 1496.09 609.637 1496.09 609.023V606.685H1495.45V609.137C1495.45 609.993 1495.94 610.527 1496.77 610.527C1497.35 610.527 1497.75 610.283 1497.97 609.849H1497.99V610.462H1498.59V606.685ZM1499.41 610.462H1500.05V608.094C1500.05 607.571 1500.41 607.18 1500.92 607.18C1501.39 607.18 1501.7 607.478 1501.7 607.931V610.462H1502.33V608.061C1502.33 607.55 1502.68 607.18 1503.19 607.18C1503.69 607.18 1503.98 607.485 1503.98 608.001V610.462H1504.61V607.854C1504.61 607.106 1504.13 606.62 1503.37 606.62C1502.84 606.62 1502.4 606.887 1502.18 607.338H1502.17C1502 606.88 1501.62 606.62 1501.1 606.62C1500.59 606.62 1500.21 606.887 1500.03 607.287H1500.01V606.685H1499.41V610.462ZM1510.07 606.685H1509.44V608.905C1509.44 609.546 1509.06 609.97 1508.45 609.97C1507.86 609.97 1507.57 609.637 1507.57 609.023V606.685H1506.94V609.137C1506.94 609.993 1507.42 610.527 1508.25 610.527C1508.84 610.527 1509.23 610.283 1509.45 609.849H1509.47V610.462H1510.07V606.685ZM1511.1 605.774V606.685H1510.54V607.203H1511.1V609.481C1511.1 610.209 1511.37 610.49 1512.07 610.49C1512.22 610.49 1512.39 610.481 1512.47 610.462V609.932C1512.43 609.939 1512.28 609.951 1512.21 609.951C1511.88 609.951 1511.74 609.793 1511.74 609.449V607.203H1512.48V606.685H1511.74V605.774H1511.1ZM1376.94 621.852H1377.58V618.075H1376.94V621.852ZM1377.26 617.403C1377.48 617.403 1377.66 617.224 1377.66 617.008C1377.66 616.785 1377.48 616.61 1377.26 616.61C1377.04 616.61 1376.86 616.785 1376.86 617.008C1376.86 617.224 1377.04 617.403 1377.26 617.403ZM1378.44 621.852H1379.07V619.484C1379.07 618.961 1379.44 618.57 1379.94 618.57C1380.41 618.57 1380.72 618.868 1380.72 619.321V621.852H1381.35V619.451C1381.35 618.94 1381.71 618.57 1382.21 618.57C1382.71 618.57 1383 618.875 1383 619.391V621.852H1383.63V619.244C1383.63 618.496 1383.15 618.01 1382.4 618.01C1381.86 618.01 1381.42 618.277 1381.21 618.728H1381.19C1381.03 618.27 1380.64 618.01 1380.13 618.01C1379.61 618.01 1379.23 618.277 1379.05 618.677H1379.03V618.075H1378.44V621.852ZM1386.29 618.01C1385.74 618.01 1385.29 618.289 1385.06 618.714H1385.05V618.075H1384.44V623.112H1385.08V621.238H1385.09C1385.32 621.652 1385.76 621.917 1386.3 621.917C1387.26 621.917 1387.91 621.148 1387.91 619.965C1387.91 618.779 1387.25 618.01 1386.29 618.01ZM1386.16 621.362C1385.51 621.362 1385.08 620.806 1385.08 619.965C1385.08 619.126 1385.51 618.565 1386.16 618.565C1386.84 618.565 1387.26 619.109 1387.26 619.965C1387.26 620.82 1386.84 621.362 1386.16 621.362ZM1390.08 618.558C1390.68 618.558 1391.07 619.009 1391.09 619.639H1389.03C1389.07 619.012 1389.48 618.558 1390.08 618.558ZM1391.07 620.769C1390.97 621.127 1390.61 621.369 1390.13 621.369C1389.45 621.369 1389.02 620.894 1389.02 620.172V620.134H1391.74V619.895C1391.74 618.751 1391.11 618.01 1390.09 618.01C1389.04 618.01 1388.37 618.805 1388.37 619.979C1388.37 621.166 1389.03 621.917 1390.12 621.917C1390.95 621.917 1391.59 621.431 1391.7 620.769H1391.07ZM1392.39 621.852H1393.02V619.5C1393.02 618.965 1393.34 618.612 1393.84 618.612C1393.99 618.612 1394.12 618.63 1394.18 618.649V618.035C1394.12 618.028 1394.03 618.01 1393.92 618.01C1393.48 618.01 1393.12 618.275 1393 618.693H1392.99V618.075H1392.39V621.852ZM1395.95 621.917C1396.5 621.917 1396.93 621.648 1397.18 621.213H1397.19V621.852H1397.79V616.61H1397.16V618.689H1397.14C1396.92 618.275 1396.48 618.01 1395.94 618.01C1394.98 618.01 1394.33 618.779 1394.33 619.965C1394.33 621.148 1394.98 621.917 1395.95 621.917ZM1396.07 618.565C1396.72 618.565 1397.16 619.121 1397.16 619.965C1397.16 620.811 1396.72 621.362 1396.07 621.362C1395.4 621.362 1394.98 620.82 1394.98 619.965C1394.98 619.109 1395.4 618.565 1396.07 618.565ZM1398.68 621.852H1399.32V618.075H1398.68V621.852ZM1399 617.403C1399.22 617.403 1399.4 617.224 1399.4 617.008C1399.4 616.785 1399.22 616.61 1399 616.61C1398.78 616.61 1398.6 616.785 1398.6 617.008C1398.6 617.224 1398.78 617.403 1399 617.403ZM1401.7 618.558C1402.3 618.558 1402.7 619.009 1402.71 619.639H1400.65C1400.69 619.012 1401.1 618.558 1401.7 618.558ZM1402.7 620.769C1402.59 621.127 1402.24 621.369 1401.75 621.369C1401.07 621.369 1400.64 620.894 1400.64 620.172V620.134H1403.37V619.895C1403.37 618.751 1402.74 618.01 1401.71 618.01C1400.66 618.01 1399.99 618.805 1399.99 619.979C1399.99 621.166 1400.65 621.917 1401.74 621.917C1402.57 621.917 1403.21 621.431 1403.32 620.769H1402.7ZM1404.22 617.164V618.075H1403.65V618.593H1404.22V620.871C1404.22 621.599 1404.49 621.88 1405.18 621.88C1405.33 621.88 1405.51 621.871 1405.58 621.852V621.322C1405.54 621.329 1405.39 621.341 1405.32 621.341C1405 621.341 1404.85 621.183 1404.85 620.839V618.593H1405.59V618.075H1404.85V617.164H1404.22ZM1407.83 621.852H1408.47V618.075H1407.83V621.852ZM1408.15 617.403C1408.37 617.403 1408.55 617.224 1408.55 617.008C1408.55 616.785 1408.37 616.61 1408.15 616.61C1407.93 616.61 1407.75 616.785 1407.75 617.008C1407.75 617.224 1407.93 617.403 1408.15 617.403ZM1409.33 621.852H1409.96V619.63C1409.96 618.991 1410.35 618.57 1410.95 618.57C1411.53 618.57 1411.82 618.902 1411.82 619.514V621.852H1412.46V619.4C1412.46 618.544 1411.98 618.01 1411.14 618.01C1410.56 618.01 1410.15 618.27 1409.94 618.677H1409.92V618.075H1409.33V621.852ZM1416.38 621.917C1417.42 621.917 1418.13 621.166 1418.13 619.965C1418.13 618.758 1417.42 618.01 1416.38 618.01C1415.32 618.01 1414.62 618.758 1414.62 619.965C1414.62 621.166 1415.32 621.917 1416.38 621.917ZM1416.38 621.362C1415.7 621.362 1415.26 620.853 1415.26 619.965C1415.26 619.074 1415.7 618.565 1416.38 618.565C1417.05 618.565 1417.48 619.074 1417.48 619.965C1417.48 620.853 1417.05 621.362 1416.38 621.362ZM1420.21 621.917C1420.76 621.917 1421.19 621.648 1421.44 621.213H1421.45V621.852H1422.06V616.61H1421.42V618.689H1421.41C1421.18 618.275 1420.74 618.01 1420.2 618.01C1419.24 618.01 1418.59 618.779 1418.59 619.965C1418.59 621.148 1419.24 621.917 1420.21 621.917ZM1420.33 618.565C1420.99 618.565 1421.42 619.121 1421.42 619.965C1421.42 620.811 1420.99 621.362 1420.33 621.362C1419.66 621.362 1419.24 620.82 1419.24 619.965C1419.24 619.109 1419.66 618.565 1420.33 618.565ZM1422.95 621.852H1423.58V618.075H1422.95V621.852ZM1423.26 617.403C1423.49 617.403 1423.66 617.224 1423.66 617.008C1423.66 616.785 1423.49 616.61 1423.26 616.61C1423.04 616.61 1422.87 616.785 1422.87 617.008C1422.87 617.224 1423.04 617.403 1423.26 617.403ZM1426.01 621.917C1427.06 621.917 1427.77 621.166 1427.77 619.965C1427.77 618.758 1427.06 618.01 1426.01 618.01C1424.96 618.01 1424.25 618.758 1424.25 619.965C1424.25 621.166 1424.96 621.917 1426.01 621.917ZM1426.01 621.362C1425.34 621.362 1424.9 620.853 1424.9 619.965C1424.9 619.074 1425.34 618.565 1426.01 618.565C1426.68 618.565 1427.12 619.074 1427.12 619.965C1427.12 620.853 1426.68 621.362 1426.01 621.362ZM1428.73 621.889C1428.96 621.889 1429.14 621.708 1429.14 621.476C1429.14 621.243 1428.96 621.06 1428.73 621.06C1428.49 621.06 1428.31 621.243 1428.31 621.476C1428.31 621.708 1428.49 621.889 1428.73 621.889Z" fill="#D71836"/>
</g>
<defs>
<filter id="filter0_di_1161_1372" x="860" y="188" width="1064" height="686" filterUnits="userSpaceOnUse" color-interpolation-filters="sRGB">
<feFlood flood-opacity="0" result="BackgroundImageFix"/>
<feColorMatrix in="SourceAlpha" type="matrix" values="0 0 0 0 0 0 0 0 0 0 0 0 0 0 0 0 0 0 127 0" result="hardAlpha"/>
<feOffset/>
<feGaussianBlur stdDeviation="50"/>
<feComposite in2="hardAlpha" operator="out"/>
<feColorMatrix type="matrix" values="0 0 0 0 1 0 0 0 0 1 0 0 0 0 1 0 0 0 0.25 0"/>
<feBlend mode="normal" in2="BackgroundImageFix" result="effect1_dropShadow_1161_1372"/>
<feBlend mode="normal" in="SourceGraphic" in2="effect1_dropShadow_1161_1372" result="shape"/>
<feColorMatrix in="SourceAlpha" type="matrix" values="0 0 0 0 0 0 0 0 0 0 0 0 0 0 0 0 0 0 127 0" result="hardAlpha"/>
<feOffset dx="10" dy="10"/>
<feGaussianBlur stdDeviation="15"/>
<feComposite in2="hardAlpha" operator="arithmetic" k2="-1" k3="1"/>
<feColorMatrix type="matrix" values="0 0 0 0 0 0 0 0 0 0 0 0 0 0 0 0 0 0 0.25 0"/>
<feBlend mode="normal" in2="shape" result="effect2_innerShadow_1161_1372"/>
</filter>
<clipPath id="clip0_1161_1372">
<rect width="1920" height="1080" fill="white"/>
</clipPath>
</defs>
</svg>
