<svg width="1920" height="1080" viewBox="0 0 1920 1080" fill="none" xmlns="http://www.w3.org/2000/svg">
<rect width="1920" height="1080" fill="#D71836"/>
<path d="M103.865 116V103.757H108.151V101.204H96.4922V103.757H100.768V116H103.865ZM124.822 116V101.204H121.725V107.212H115.06V101.204H111.963V116H115.06V109.766H121.725V116H124.822ZM139.185 113.437H132.479V109.704H138.806V107.325H132.479V103.757H139.185V101.204H129.383V116H139.185V113.437ZM159.587 113.437H152.88V109.704H159.207V107.325H152.88V103.757H159.587V101.204H149.784V116H159.587V113.437ZM166.885 116V106.31H166.978L173.899 116H176.462V101.204H173.499V110.842H173.417L166.506 101.204H163.922V116H166.885ZM181.034 101.204V116H186.683C191.123 116 193.738 113.242 193.738 108.545C193.738 103.849 191.123 101.204 186.683 101.204H181.034ZM184.13 103.757H186.314C189.042 103.757 190.58 105.459 190.58 108.556C190.58 111.755 189.083 113.437 186.314 113.437H184.13V103.757Z" fill="#F2F3EE"/>
<rect x="1800" y="96" width="24" height="24" fill="#F2F3EE"/>
<path d="M703.093 562.6C700.493 574.6 700.193 575.4 695.993 576.4L691.993 577.3L691.393 580.2C698.893 579.7 708.893 579.7 716.093 580.2L716.693 577.3L713.393 576.7C708.993 575.9 708.593 574.6 711.193 562.6L721.293 515.3H726.593C736.793 515.3 737.993 519.2 739.093 529.3L739.593 533.6L742.193 533.2C742.793 526.1 743.793 518.9 744.893 511.8C721.193 512.3 714.693 512.3 691.493 511.8C689.693 518.9 687.493 526.1 685.093 533.2L687.793 533.7L689.993 529.3C695.593 518.1 698.693 515.3 708.093 515.3H713.193L703.093 562.6ZM763.43 529.4C766.03 517.4 766.43 515.9 770.53 515.3L774.73 514.7L775.33 511.8C767.73 512.3 758.53 512.3 751.03 511.8L750.43 514.7L754.23 515.3C758.13 515.9 758.03 517.4 755.43 529.4L748.33 562.6C745.73 574.6 745.33 576.1 741.23 576.7L737.13 577.3L736.53 580.2C744.23 579.7 753.43 579.7 760.83 580.2L761.43 577.3L757.53 576.7C753.73 576.1 753.83 574.6 756.33 562.6L759.83 546.3H794.53L791.03 562.6C788.43 574.6 787.93 576.1 783.83 576.7L779.73 577.3L779.13 580.2C786.83 579.7 796.13 579.7 803.43 580.2L804.03 577.3L800.13 576.7C796.33 576.1 796.43 574.6 799.03 562.6L806.13 529.4C808.73 517.4 809.13 515.9 813.23 515.3L817.43 514.7L818.03 511.8C810.53 512.3 801.13 512.3 793.63 511.8L793.13 514.7L796.83 515.3C800.73 515.9 800.73 517.4 798.13 529.4L795.33 542.3H760.63L763.43 529.4ZM823.471 567.5L829.171 556.8H854.271L855.771 567.6C856.871 575.6 854.871 575.9 850.571 576.8L847.971 577.3L847.471 580.2C855.371 579.9 861.571 579.9 870.571 580.2L871.171 577.3L868.971 576.7C865.971 576 864.971 574.9 863.771 567L855.271 511.1H853.871C850.171 513.2 844.871 514.9 839.171 515.2L838.571 517.7L841.471 518.3C843.271 518.7 843.871 519.4 843.371 521.6C842.771 524.1 839.571 529.8 831.971 543.4L818.971 566.6C814.771 574 811.771 575.8 807.771 576.8L805.771 577.3L805.171 580.2C812.771 579.8 821.371 579.7 827.671 580.2L828.371 577.3L826.071 576.8C821.171 575.7 820.171 573.7 823.471 567.5ZM831.071 553.1L848.971 519.4L853.771 553.1H831.071ZM893.936 577.3L891.436 576.5C886.936 575.2 886.236 573.2 887.836 565L896.136 523.3L923.636 580.1C925.336 579.9 927.136 579.9 928.836 580.1L940.136 527.1C941.836 518.9 944.236 516.6 947.836 515.6L950.836 514.7L951.436 511.8C945.736 512.2 936.436 512.2 930.836 511.8L930.236 514.7L932.536 515.5C936.636 516.7 936.736 519.8 935.336 527.2L927.236 569.5L899.436 511.8C895.836 512.2 889.936 512.2 886.636 511.8L886.036 514.7L888.936 515.4C892.236 516.1 893.036 519.4 891.736 525.5L883.336 565C881.536 573.4 879.536 575.6 876.236 576.4L872.736 577.3L872.136 580.2C878.036 579.8 887.236 579.8 893.336 580.2L893.936 577.3ZM969.331 529.5C971.931 517.4 972.331 515.9 976.431 515.3L980.631 514.7L981.231 511.8C973.731 512.3 964.231 512.3 956.931 511.8L956.331 514.7L960.131 515.3C964.031 515.9 963.831 517.4 961.331 529.5L954.131 563C951.731 574.7 951.231 576.1 947.131 576.7L943.031 577.3L942.331 580.2C949.931 579.7 959.431 579.7 966.731 580.2L967.331 577.3L963.431 576.7C959.631 576.1 959.731 574.7 962.231 563L969.331 529.5ZM990.831 565.9L975.931 542.3L992.131 529C1005.43 518.2 1009.83 515.3 1013.63 514.7L1015.73 514.3L1016.33 511.8C1007.23 512.3 1000.63 512.3 992.631 511.8L992.031 514.3L994.031 514.7C998.631 515.6 997.631 519.4 990.231 525.8L967.931 544.7L990.531 580.2C995.231 579.8 999.831 579.8 1004.33 580.2L1004.93 577.3L1002.63 577C999.631 576.6 996.231 574.7 990.831 565.9ZM1067.32 580H1079.87V552.217L1104.57 509.541H1090.8L1073.76 540.205H1073.42L1056.38 509.541H1042.61L1067.32 552.217V580ZM1137.14 581.221C1157.75 581.221 1170.54 567.207 1170.54 544.795V544.697C1170.54 522.334 1157.7 508.32 1137.14 508.32C1116.63 508.32 1103.69 522.334 1103.69 544.697V544.795C1103.69 567.207 1116.54 581.221 1137.14 581.221ZM1137.14 570.283C1124.54 570.283 1116.54 560.469 1116.54 544.795V544.697C1116.54 529.023 1124.59 519.258 1137.14 519.258C1149.74 519.258 1157.75 529.072 1157.75 544.697V544.795C1157.75 560.322 1149.88 570.283 1137.14 570.283ZM1209.6 581.221C1227.52 581.221 1238.51 570.723 1238.51 555.146V509.541H1225.96V554.121C1225.96 563.887 1220.05 570.283 1209.6 570.283C1199.15 570.283 1193.2 563.887 1193.2 554.121V509.541H1180.6V555.146C1180.6 570.723 1191.73 581.221 1209.6 581.221Z" fill="#F2F3EE"/>
</svg>
